<svg xmlns="http://www.w3.org/2000/svg" width="36" height="36" viewBox="0 0 36 36">
    <g fill="none" fill-rule="evenodd">
        <g>
            <g>
                <g>
                    <g>
                        <g>
                            <g>
                                <path fill="#03A9F4" d="M18 36C8.06 36 0 27.941 0 18S8.06 0 18 0s18 8.059 18 18-8.06 18-18 18z" transform="translate(-215 -4810) translate(0 4499) translate(151 100) translate(0 5) translate(0 206) translate(64)"/>
                                <g fill="#FFF" fill-rule="nonzero">
                                    <path d="M16.902 1.676c-.113-.121-.295-.153-.443-.077-.153.068-.31.125-.472.168.252-.317.442-.677.561-1.063.053-.194-.065-.392-.262-.444-.105-.027-.218-.008-.307.054-.562.298-1.16.528-1.778.683-1.275-1.182-3.216-1.33-4.66-.354-1.113.74-1.725 2.017-1.597 3.33C5.532 3.773 3.314 2.598 1.815.73 1.738.638 1.621.588 1.501.594 1.378.6 1.268.668 1.205.77.697 1.588.55 2.574.797 3.501c.127.475.345.923.642 1.32-.133-.065-.26-.145-.375-.237-.158-.126-.391-.103-.52.053-.053.065-.082.146-.082.229C.484 6.21 1.234 7.44 2.43 8.09c-.162-.02-.321-.053-.476-.1-.196-.058-.402.05-.46.243-.026.084-.02.174.016.254.52 1.143 1.557 1.977 2.8 2.251-1.184.657-2.547.933-3.899.79-.175-.023-.341.082-.394.248-.054.164.017.343.17.428 1.655.967 3.538 1.492 5.462 1.526 1.847-.007 3.65-.549 5.185-1.558 2.929-1.91 4.755-5.34 4.5-8.41.627-.455 1.17-1.012 1.607-1.646.09-.139.074-.32-.04-.44z" transform="translate(-215 -4810) translate(0 4499) translate(151 100) translate(0 5) translate(0 206) translate(64) translate(10 11)"/>
                                </g>
                            </g>
                        </g>
                    </g>
                </g>
            </g>
        </g>
    </g>
</svg>
