<?xml version="1.0" encoding="utf-8"?>
<!-- Generator: Adobe Illustrator 27.5.0, SVG Export Plug-In . SVG Version: 6.00 Build 0)  -->
<svg version="1.1" id="Layer_1" xmlns="http://www.w3.org/2000/svg" xmlns:xlink="http://www.w3.org/1999/xlink" x="0px" y="0px"
	 viewBox="0 0 1350 900" style="enable-background:new 0 0 1350 900;" xml:space="preserve">
<rect style="fill:#FFFFFF;" width="1350" height="900"/>
<g>
	<rect x="42.141" y="48.822" style="fill:#DBD693;" width="1265.054" height="716.767"/>
	<g>
		<g>
			<rect x="104.675" y="48.822" style="fill:#FFFCDC;" width="3.735" height="796.534"/>
			<rect x="222.127" y="48.822" style="fill:#FFFCDC;" width="3.727" height="796.534"/>
			<rect x="339.572" y="48.822" style="fill:#FFFCDC;" width="3.728" height="796.534"/>
			<rect x="457.017" y="48.822" style="fill:#FFFCDC;" width="3.729" height="796.534"/>
			<rect x="574.468" y="48.822" style="fill:#FFFCDC;" width="3.728" height="796.534"/>
			<rect x="691.913" y="48.822" style="fill:#FFFCDC;" width="3.728" height="796.534"/>
			<rect x="809.359" y="48.822" style="fill:#FFFCDC;" width="3.727" height="796.534"/>
			<rect x="926.804" y="48.822" style="fill:#FFFCDC;" width="3.727" height="796.534"/>
			<rect x="1044.255" y="48.822" style="fill:#FFFCDC;" width="3.727" height="796.534"/>
			<rect x="1161.699" y="48.822" style="fill:#FFFCDC;" width="3.728" height="796.534"/>
			<rect x="1279.145" y="48.822" style="fill:#FFFCDC;" width="3.729" height="796.534"/>
		</g>
		<g>
			<rect x="42.141" y="142.472" style="fill:#FFFCDC;" width="1265.054" height="3.727"/>
			<rect x="42.141" y="259.924" style="fill:#FFFCDC;" width="1265.054" height="3.728"/>
			<rect x="42.141" y="377.369" style="fill:#FFFCDC;" width="1265.054" height="3.727"/>
			<rect x="42.141" y="494.813" style="fill:#FFFCDC;" width="1265.054" height="3.728"/>
			<rect x="42.141" y="612.258" style="fill:#FFFCDC;" width="1265.054" height="3.735"/>
			<rect x="42.141" y="729.71" style="fill:#FFFFFF;" width="1265.054" height="3.727"/>
		</g>
	</g>
	<g>
		<rect x="42.81" y="663.962" style="fill:#46D0D2;" width="1265.047" height="187.216"/>
		<g>
			<g>
				<g>
					<g>
						<polygon style="fill:#1F8486;" points="240.638,851.178 236.885,851.178 193.112,810.955 189.05,807.227 111.27,735.746 
							107.208,732.018 42.81,672.839 42.81,669.406 110.955,732.018 115.011,735.746 192.804,807.227 196.866,810.955 						"/>
					</g>
					<g>
						<polygon style="fill:#1F8486;" points="123.566,851.178 119.812,851.178 76.04,810.955 71.985,807.227 42.81,780.417 
							42.81,776.973 75.732,807.227 79.794,810.955 						"/>
					</g>
					<g>
						<polygon style="fill:#1F8486;" points="358.918,851.178 355.158,851.178 311.206,810.955 307.138,807.227 229.03,735.746 
							224.955,732.018 152.702,665.89 156.43,665.89 228.695,732.018 232.77,735.746 310.885,807.227 314.96,810.955 						"/>
					</g>
					<g>
						<polygon style="fill:#1F8486;" points="477.193,851.178 473.44,851.178 429.307,810.955 425.213,807.227 346.79,735.746 
							342.702,732.018 270.147,665.89 273.875,665.89 346.436,732.018 350.524,735.746 428.96,807.227 433.055,810.955 						"/>
					</g>
					<g>
						<polygon style="fill:#1F8486;" points="595.467,851.178 591.714,851.178 547.401,810.955 543.294,807.227 464.543,735.746 
							460.442,732.018 387.592,665.89 391.32,665.89 464.177,732.018 468.284,735.746 547.042,807.227 551.148,810.955 						"/>
					</g>
					<g>
						<polygon style="fill:#1F8486;" points="713.747,851.178 709.994,851.178 665.502,810.955 661.383,807.227 582.31,735.746 
							578.19,732.018 505.044,665.89 508.772,665.89 581.924,732.018 586.05,735.746 665.129,807.227 669.249,810.955 						"/>
					</g>
					<g>
						<polygon style="fill:#1F8486;" points="832.028,851.178 828.268,851.178 783.596,810.955 779.457,807.227 700.07,735.746 
							695.93,732.018 622.489,665.89 626.217,665.89 699.665,732.018 703.81,735.746 783.204,807.227 787.351,810.955 						"/>
					</g>
					<g>
						<polygon style="fill:#1F8486;" points="950.296,851.178 946.543,851.178 901.69,810.955 897.539,807.227 817.83,735.746 
							813.671,732.018 739.934,665.89 743.661,665.89 817.405,732.018 821.564,735.746 901.286,807.227 905.438,810.955 						"/>
					</g>
					<g>
						<polygon style="fill:#1F8486;" points="1068.577,851.178 1064.823,851.178 1019.791,810.955 1015.613,807.227 
							935.589,735.746 931.412,732.018 857.378,665.89 861.107,665.89 935.152,732.018 939.324,735.746 1019.361,807.227 
							1023.539,810.955 						"/>
					</g>
					<g>
						<polygon style="fill:#1F8486;" points="1186.858,851.178 1183.104,851.178 1137.892,810.955 1133.701,807.227 
							1053.35,735.746 1049.159,732.018 974.83,665.89 978.558,665.89 1052.9,732.018 1057.091,735.746 1137.448,807.227 
							1141.639,810.955 						"/>
					</g>
					<g>
						<polygon style="fill:#1F8486;" points="1305.131,851.178 1301.371,851.178 1255.98,810.955 1251.776,807.227 1171.11,735.746 
							1166.9,732.018 1092.275,665.89 1096.003,665.89 1170.64,732.018 1174.844,735.746 1255.523,807.227 1259.734,810.955 						
							"/>
					</g>
					<g>
						<polygon style="fill:#1F8486;" points="1307.857,749.205 1307.857,752.509 1306.655,751.448 1288.863,735.746 
							1284.641,732.018 1258.904,709.302 1253.595,704.617 1253.324,704.379 1253.324,704.372 1253.319,704.372 1248.434,700.059 
							1243.896,696.054 1229.022,682.924 1219.652,674.657 1209.721,665.89 1213.448,665.89 1223.385,674.657 1229.697,680.23 
							1247.63,696.054 1252.168,700.059 1253.595,701.319 1253.91,701.596 1262.117,708.84 1262.208,708.923 1288.381,732.018 
							1292.604,735.746 						"/>
					</g>
				</g>
				<g>
					<g>
						<rect x="42.81" y="732.018" style="fill:#1F8486;" width="1265.047" height="3.728"/>
					</g>
				</g>
				<g>
					<g>
						<rect x="42.81" y="807.227" style="fill:#1F8486;" width="1265.047" height="3.728"/>
					</g>
				</g>
			</g>
		</g>
		<rect x="42.811" y="663.959" style="opacity:0.5;fill:#244D4D;" width="1265.049" height="32.094"/>
		<rect x="42.811" y="663.959" style="fill:#46D0D2;" width="1265.049" height="10.698"/>
	</g>
	<g>
		<path style="opacity:0.8;fill:#1F8486;" d="M1307.857,751.493v18.447c-16.505,0.63-34.684,1.19-54.262,1.678
			c-11.955,0.296-24.431,0.559-37.363,0.797c-1.215,0.026-2.437,0.045-3.664,0.065c-9.796,0.173-19.848,0.334-30.126,0.468
			c-3.869,0.052-7.771,0.103-11.703,0.148c-22.761,0.269-46.549,0.444-71.083,0.514c-1.242,0.006-2.482,0.006-3.729,0.013
			c-7.341,0.018-14.751,0.026-22.215,0.026c-18.677,0-36.997-0.059-54.84-0.174c-12.816-0.083-25.389-0.193-37.665-0.327
			c-1.266-0.014-2.533-0.026-3.793-0.045c-43.327-0.502-82.948-1.337-116.892-2.429c-1.305-0.039-2.597-0.085-3.882-0.129
			c-71.578-2.372-116.945-5.895-116.945-9.827c0-2.662,20.813-5.142,56.487-7.199c0.675-0.039,1.356-0.077,2.044-0.116
			c0.205-0.013,0.418-0.025,0.624-0.038c8.934-0.502,18.75-0.971,29.368-1.421c1.317-0.052,2.654-0.11,4.004-0.161
			c1.106-0.045,2.217-0.09,3.343-0.135c0.925-0.032,1.857-0.071,2.803-0.109c0.257-0.013,0.514-0.019,0.778-0.032
			c1.182-0.045,2.377-0.091,3.586-0.135c0.187-0.006,0.373-0.013,0.559-0.019c3.497-0.128,7.058-0.257,10.697-0.379
			c2.577-0.083,5.186-0.167,7.828-0.257c26.353-0.836,56.081-1.517,88.276-2.019c1.222-0.019,2.45-0.039,3.677-0.051
			c20.781-0.315,42.563-0.546,65.105-0.688c0.143,0,0.283,0,0.418-0.006c3.541-0.02,7.102-0.038,10.683-0.057
			c0.932-0.006,1.864-0.006,2.796-0.013c2.925-0.013,5.856-0.027,8.806-0.039c4.647-0.02,9.321-0.032,14.024-0.039h0.264
			c3.355-0.007,6.73-0.013,10.111-0.013c0.302-0.006,0.61-0.006,0.912,0c0.078-0.006,0.149-0.006,0.225,0
			c0.957-0.006,1.921-0.006,2.88-0.006h3.721c13.929,0,27.659,0.032,41.143,0.096c19.181,0.09,37.852,0.244,55.883,0.455
			c3.933,0.046,7.834,0.097,11.703,0.148c1.035,0.012,2.063,0.026,3.092,0.045c1.273,0.012,2.54,0.032,3.799,0.052
			c8.941,0.128,17.695,0.269,26.258,0.423c13.163,0.239,25.85,0.508,38.005,0.811c19.103,0.475,36.876,1.022,53.06,1.633
			C1307.06,751.461,1307.459,751.474,1307.857,751.493z"/>
		<g>
			<g>
				<path style="fill:#FFA77B;" d="M627.427,455.487c10.764-2.541,23.292-1.73,34.748-2.837c0.113-0.01,0.224-0.02,0.336-0.033
					c17.211-1.725,35.307-5.187,51.688-10.458c3.779-1.212,7.518-2.539,11.199-3.988c12.611-4.962,24.568-11.389,35.158-19.878
					c10.542-8.447,24.847-20.56,24.335-30.774c0,0-8.333-8.468-23.281-12.059c-2.889-0.692-6.026-1.205-9.392-1.439
					c-13.414-0.928-30.546,2.561-50.61,16.549c-26.632,18.569-51.89,38.71-82.906,48.398
					C620.462,444.433,624.617,450.276,627.427,455.487z"/>
				<g>
					<path style="fill:#DD7458;" d="M660.687,452.635c0.126-0.011,0.243-0.024,0.361-0.035c18.224-1.827,37.388-5.493,54.74-11.072
						c3.234-1.039,6.439-2.159,9.609-3.357c12.611-4.962,24.568-11.389,35.158-19.878c10.542-8.447,24.847-20.56,24.335-30.774
						c0,0-8.333-8.468-23.281-12.059c0.234,0.366,0.425,0.701,0.558,1.006c7.098,16.164-6.623,26.581-17.768,36.356
						c-20.816,18.258-46.818,27.792-72.969,36.553C667.884,450.566,664.3,451.634,660.687,452.635z"/>
				</g>
			</g>
			<path style="fill:#FFFFFF;" d="M554.098,576.867c-3.875-5.958-4.994-11.793-5.075-16.349
				c-0.499-28.102,36.305-56.593,60.66-75.446c5.812-4.499,10.831-8.384,13.166-10.667c16.338-15.973,26.459-30.1,26.433-51.14
				c-0.008-8.995-6.082-24.817-14.192-32.529c-1.937-1.84-4.842-4.006-7.691-3.866l-0.94-19.042
				c7.591-0.375,15.118,2.769,21.768,9.091c12.574,11.954,20.106,32.939,20.124,46.323c0.034,29.269-15.442,48.439-32.172,64.796
				c-3.122,3.053-8.286,7.049-14.824,12.11c-17.398,13.468-53.598,41.492-53.268,60.033c0.049,2.802,0.908,7.096,7.73,12.002
				c14.013,10.07,40.822-7.209,66.749-23.919c23.612-15.217,48.029-30.953,70.573-32.145l1.006,19.038
				c-17.482,0.924-39.733,15.266-61.249,29.133c-31.293,20.167-63.65,41.022-88.206,23.373
				C559.867,584.196,556.467,580.509,554.098,576.867z"/>
			<path style="fill:#5E546C;" d="M707.799,719.435c-8.925,0-17.132-1.624-24.47-4.888c-16.758-7.454-28.76-23.057-35.674-46.373
				c-2.181-7.356-3.439-18.508-4.895-31.422c-3.793-33.645-8.988-79.724-33.918-80.434l0.31-10.89
				c34.385,0.98,40.194,52.492,44.433,90.104c1.398,12.401,2.606,23.11,4.514,29.544c5.967,20.123,15.945,33.418,29.656,39.517
				c20.36,9.056,45.629,0.932,63.243-7.478l4.695,9.832C738.303,715.25,722.128,719.435,707.799,719.435z"/>
			<g>
				<path style="fill:#FF2D0B;" d="M837.294,328.181c0,0.149,0,0.305-0.006,0.462c-0.313,15.736-5.278,31.26-12.114,45.319
					c-2.226,4.59-4.656,9.029-7.19,13.265c-1.096,1.831-2.213,3.628-3.344,5.379c-11.637,18.125-24.513,31.927-30.021,37.53
					c-23.158-10.594-39.26-33.969-45.517-59.611c0.926-1.123,1.913-2.343,2.989-3.623c10.894-13.215,28.767-34.248,43.604-48.764
					c3.813-3.726,7.429-7.028,10.669-9.657c0.987-0.796,1.933-1.526,2.847-2.192c3.56-2.601,6.529-4.153,8.613-4.234
					c4.548-0.191,8.878,0.319,12.739,1.559C830.505,306.8,837.403,314.821,837.294,328.181z"/>
				<path style="fill:#D80F00;" d="M784.618,430.139c-23.156-10.599-39.26-33.973-45.517-59.612c0.926-1.127,1.916-2.346,2.99-3.628
					c4.686,7.872,9.206,22.012,14.247,27.535c7.094,7.791,23.521,20.697,32.519,13.849c32.894-25.033,48.705-93.277,48.43-79.637
					C836.365,374.679,795.676,418.884,784.618,430.139z"/>
			</g>
			<path style="fill:#FF2D0B;" d="M994.791,502.053c-6.883,3.438-21.243,8.708-37.925,14.107
				c-31.137,10.078-61.329,18.262-74.756,18.133c-4.324-5.611-8.764-12.549-13.216-20.352
				c-26.146-45.803-52.865-121.546-60.926-136.075c-8.26-14.912-22.497-37.742-20.256-53.131c0.211-1.478,0.578-2.879,1.116-4.201
				c1.056-2.614,2.356-4.949,3.828-7.054c1.272-1.819,2.682-3.473,4.186-4.984c1.635-1.641,3.377-3.111,5.195-4.474
				c9.444-7.074,20.713-10.928,27.141-17.771l56.01-26.438c3.446,0.422,10.153,0.278,18.126,0.197
				c3.248-0.034,6.727-0.061,10.268-0.034c0.286,0,0.566,0.007,0.851,0.014c4.432,0.04,9.112,0.197,13.877,0.531
				c8.715,0.606,6.08,5.549,14.326,7.782c13.005,3.52,19.521,11.888,23.014,20.188c2.642,6.271,3.554,12.515,4.222,16.579
				c8.089,49.073,7.238,152.786,24.545,196.057c0.116,0.306,0.246,0.599,0.369,0.899
				C994.784,502.04,994.791,502.046,994.791,502.053z"/>
			<g>
				<path style="fill:#FFA77B;" d="M856.817,313.799c9.796-0.613,27.998-22.619,28.065-31.575c0.036-5.213,6.419-16.875,2.516-20.32
					c-14.862-13.107-32.163-60.756-35.438-63.752c-4.203-3.831,2.1,42.873-1.607,39.491c-0.026-0.019-0.043-0.039-0.061-0.063
					c-3.308-3.495-14.346-14.046-13.945-17.661l-13.106,28.51c0.094,0.053,0.187,0.112,0.276,0.172
					c5.695,3.676,8.709,13.848,11.839,20.811c0.076,0.17,0.197,0.362,0.338,0.56c0.422,0.579,1.019,1.214,1.161,1.635
					c0.007,0.019,0.011,0.036,0.016,0.055c0.05,0.187-0.002,0.33-0.227,0.395c-5.589,1.645-2.481,2.441-3.398,7.93
					c-0.51,3.066-2.128,9.11-2.264,11.777c-0.058,1.153,3.304,3.719,3.181,4.812C832.956,307.234,849.631,314.249,856.817,313.799z"
					/>
			</g>
			<path style="fill:#D80F00;" d="M833.247,279.988c1.96,20.681,24.953,35.164,24.953,35.164
				c-6.661,0.667-24.726,9.239-29.42,15.005C817.492,317.632,825.05,281.97,833.247,279.988z"/>
			<path style="fill:#D80F00;" d="M879.494,252.355c7.332-0.468,22.832,8.055,22.832,8.055s15.754,36.861,11.518,48.566
				c-11.529-7.571-43.933,4.256-57.101,5.814c0,0,14.141-14.387,16.292-21.589C879.694,270.927,879.494,252.355,879.494,252.355z"/>
			<path style="fill:#D80F00;" d="M854.024,314.582l7.65-2.347c-0.171,1.647-0.001,7.344,5.348,24.632l0.029,0.092
				c3.504,11.334,6.652,20.786,10.597,30.072l-7.054,2.998c-4.071-9.587-7.288-19.248-10.864-30.803l-0.029-0.092
				c-0.766-2.473-2.799-9.044-4.201-15.332C854.662,320.048,854.168,317.026,854.024,314.582z"/>
			<path style="fill:#D80F00;" d="M994.791,502.053c-6.883,3.438-21.243,8.708-37.925,14.107
				c-31.137,10.078-61.329,18.262-74.756,18.133c-4.324-5.611-8.764-12.549-13.216-20.352c14.987-0.102,29.51-2.417,41.507-6.55
				c24.601-8.476,39.675-24.068,51.585-46.464c16.437-30.912,5.678-87.454,5.842-121.812c0.041-9.737-0.791-33.391-2.179-50.624
				c2.642,6.271,3.554,12.515,4.222,16.579c8.089,49.073,7.238,152.786,24.545,196.057c0.116,0.306,0.246,0.599,0.369,0.899
				C994.784,502.04,994.791,502.046,994.791,502.053z"/>
			<g>
				<path style="fill:#492121;" d="M753.126,191.403l9.086-0.188c2.008,3.11,4.683,5.292,6.44,8.419
					c2.041,3.635,2.718,8.461,4.361,12.192c3.435,7.779,8.41,15.771,11.05,23.678c-7.182-5.364-14.177-10.902-20.231-17.243
					C757.797,211.943,755.094,202.503,753.126,191.403z"/>
				<g>
					<path style="fill:#FFA77B;" d="M771.593,240.129c7.93,7.743,17.496,9.764,16.458,2.376
						c-1.038-7.377-14.993-23.228-17.363-17.749C768.306,230.208,767.202,235.856,771.593,240.129z"/>
					<path style="fill:#DD7458;" d="M784.705,238.425c-3.183-3.821-6.93-6.602-7.917-4.302c-1.014,2.345-1.715,4.732-1.491,6.938
						c-0.589-0.475-1.178-0.993-1.753-1.554c-3.223-3.139-2.414-7.303-0.665-11.33C774.354,224.743,781.986,232.645,784.705,238.425
						z"/>
				</g>
				<path style="fill:#FFA77B;" d="M792.27,257.024c4.483,5.341,9.387,9.595,14.293,12.898c13.458,9.074,26.917,11.031,31.575,8.896
					c14.228-6.52,20.401-24.668,20.656-38.437c0.036-1.985,0.04-4.785-0.154-8.243c-0.511-9.153-2.395-22.928-8.683-38.484
					c-2.602-6.447-4.489-26.818-28.321-37.635c-2.91-1.323-11.512,0.074-15.196-0.523c-9.759-1.591-35.663,3.117-43.12,22.313
					c-6.45,16.591,7.099,35.195,11.226,43.086C781.498,234.149,777.238,239.103,792.27,257.024z"/>
				<path style="fill:#492121;" d="M824.626,189.393c-0.683-1.402-1.347-2.815-1.971-4.245c-6.97,1.134-12.866,4.447-16.263,7.476
					c-0.586,0.522-1.061,1.009-1.418,1.458l-1.127,1.398l4.048,4.113C812.419,194.829,818.242,191.46,824.626,189.393z"/>
				<path style="fill:#492121;" d="M773.115,213.421c1.863-1.337,3.877-2.413,6.032-3.206c2.547-0.938,5.186-1.452,7.859-1.773
					l-0.58-5.53l-1.478-0.053c-0.471-0.018-1.03,0.026-1.665,0.138c-3.796,0.64-9.139,3.108-13.492,7.972
					c0.939,0.942,1.83,1.936,2.699,2.952C772.707,213.736,772.919,213.561,773.115,213.421z"/>
				<g>
					<path style="fill:#FFFFFF;" d="M814.933,208.011c0.009,1.32,7.813,6.409,11.294,3.76c3.48-2.655,3.482-10.477,2.373-10.604
						c-2.072-0.235-6.611-1.06-10.093,1.591C815.025,205.41,814.928,207.437,814.933,208.011z"/>
					<g>
						<path style="fill:#382724;" d="M825.535,205.441c-1.605-2.625-4.169-3.984-5.737-3.021c-1.558,0.965-1.52,3.885,0.083,6.523
							c1.603,2.64,4.168,3.992,5.73,3.029C827.175,211.009,827.141,208.083,825.535,205.441z"/>
						<path style="fill:#FFFDFD;" d="M823.974,205.682c-0.416-0.68-1.08-1.032-1.486-0.784c-0.403,0.251-0.394,1.006,0.023,1.691
							c0.415,0.681,1.077,1.029,1.482,0.782C824.397,207.124,824.39,206.365,823.974,205.682z"/>
						<path style="fill:#382724;" d="M828.6,201.167c0,0-9.143,1.287-13.667,6.844c0,0-0.682-3.594,3.687-6.454
							C822.984,198.676,828.6,201.167,828.6,201.167z"/>
					</g>
				</g>
				<g>
					<path style="fill:#FFFFFF;" d="M780.271,227.052c0.183,1.227,7.772,6.299,10.506,3.989c2.73-2.315,1.689-9.588,0.69-9.754
						c-1.866-0.311-5.998-1.277-8.728,1.037C780.009,224.635,780.191,226.517,780.271,227.052z"/>
					<g>
						<path style="fill:#382724;" d="M789.112,224.858c-1.981-2.357-4.51-3.489-5.651-2.51c-1.138,0.977-0.451,3.687,1.524,6.057
							c1.979,2.37,4.509,3.49,5.646,2.519C791.774,229.944,791.093,227.227,789.112,224.858z"/>
						<path style="fill:#FFFDFD;" d="M787.811,225.163c-0.515-0.614-1.167-0.907-1.463-0.653c-0.295,0.254-0.119,0.954,0.394,1.567
							c0.513,0.614,1.168,0.906,1.464,0.653C788.5,226.48,788.325,225.774,787.811,225.163z"/>
						<path style="fill:#382724;" d="M791.466,221.286c0,0-7.924,0.796-11.196,5.766c0,0-1.083-3.374,2.409-5.84
							C786.162,218.726,791.466,221.286,791.466,221.286z"/>
					</g>
				</g>
				<path style="fill:#492121;" d="M783.272,146.365c5.696-2.227,18.762-5.439,27.364,4.27
					c12.573-11.239,19.294-1.307,25.122,10.672c5.927,12.18,16.484,19.179,14.198,32.346l-3.798,13.739
					c-3.906-7.812-13.252-37.755-31.103-33.602c-13.803,10.442-56.421,41.73-66.409,20.022
					C741.863,179.069,756.812,156.715,783.272,146.365z"/>
				<g>
					<path style="fill:#2156A3;" d="M765.866,182.787c0,0,33.023-8.092,57.421-6.235c12.094,0.921,21.998,1.882,24.543,2.692
						c1.216-7.4,3.121-16.689,1.56-23.772c-1.633-7.389-3.237-15.846-14.177-21.918c-2.101-1.164-4.496-2.199-7.103-3.09
						c-16.401-5.645-45.649,1.36-58.392,7.214C751.74,145.934,758.062,172.117,765.866,182.787z"/>
					<path style="fill:#092957;" d="M732.185,174.483c39.897-39.752,101.934,2.969,101.934,2.969
						c-26.844-2.15-61.563,17.16-78.302,26.287C747.774,208.122,710.163,196.424,732.185,174.483z"/>
					<path style="fill:#092957;" d="M823.287,176.552c12.094,0.921,21.998,1.882,24.543,2.692c1.216-7.4,3.121-16.689,1.56-23.772
						c-1.633-7.389-3.237-15.846-14.177-21.918c-2.101-1.164-4.496-2.199-7.103-3.09c0.478,0.522,0.925,1.05,1.332,1.592
						C838.528,144.126,831.758,165.512,823.287,176.552z"/>
				</g>
				<path style="fill:#492121;" d="M846.359,191.77c-1.821,0.9-0.902,5.224-2.604,6.409c2.752,6.74,6.863,31.472,5.708,45.568
					c-1.002,12.219-9.915,18.027-15.323,17.126c-3.569-0.595-6.23-3.266-7.812-4.507c-2.742,1.597-3.45,1.922-6.31,3.305
					c0.282,2.884,1.868,10.531,0.3,11.417c-6.91,3.906-21.032-9.714-27.041-13.52c3.305,8.112,16.229,37.246,37.556,38.157
					c35.153,1.502,35.191-38.908,33.35-53.48C860.58,213.702,850.965,196.879,846.359,191.77z"/>
				<path style="fill:#492121;" d="M844.055,228.424c-2.014-2.844-4.771-1.384-7.812-0.601c-7.044,1.814-16.761,6.6-23.035,10.016
					l-5.608,3.005c0.153,0.073-17.307,10.653-16.725,13.419c1.202,5.709,3.906,11.417,8.713,15.924
					c-1.452-2.426-1.282-12.482,1.202-13.821c2.684-1.446,12.971-2.253,31.848-19.83c2.295-2.137,15.546,11.509,18.327,11.718
					C849.3,246.035,849.163,235.635,844.055,228.424z"/>
				<path style="fill:#DD7458;" d="M817.434,232.322c-1.913,7.197-11.724,11.896-17.528,6.024
					C805.125,234.398,817.434,232.322,817.434,232.322z"/>
				<g>
					<path style="fill:#FFA77B;" d="M862.711,195.597c0.208,11.808-6.039,22.099-11.724,17.092
						c-5.672-4.989-8.012-26.98-1.157-26.29C856.672,187.066,862.61,189.063,862.711,195.597z"/>
					<path style="fill:#DD7458;" d="M850.177,207.271c-0.716-5.127-0.035-10.234,2.838-9.935c2.935,0.291,5.643,0.914,7.409,2.324
						c0.075-0.823,0.112-1.669,0.096-2.529c-0.074-4.795-4.452-6.27-9.496-6.775C846.736,189.914,847.335,201.529,850.177,207.271z"
						/>
				</g>
			</g>
			<path style="fill:#004F9E;" d="M800.869,372.092c0,0,73.082,160.527,75.765,163.762l88.072-26.079
				c-0.44-0.34-40.834-110.208-43.546-168.481C872.619,342.912,800.869,372.092,800.869,372.092z"/>
			<path style="fill:#004F9E;" d="M905.306,378.331l12.703-2.857c-5.391-23.975-5.121-56.175,0.705-84.031
				c2.419-11.566,5.636-21.935,9.591-30.922c-4.76-0.333-9.442-0.488-13.873-0.533c-3.417,8.61-6.261,18.248-8.464,28.79
				C899.695,318.792,899.447,352.264,905.306,378.331z"/>
			<path style="fill:#004F9E;" d="M837.764,392.28l-9.717,9.07c-3.424-4.365-6.794-9.098-10.063-14.122
				c-1.716-2.629-3.405-5.345-5.065-8.123c-9.819-16.485-18.561-35.433-25.153-54.696c-0.714-2.085-1.408-4.175-2.07-6.27
				c3.813-3.726,7.429-7.028,10.669-9.657c0.034,0.13,0.069,0.259,0.116,0.389c5.672,19.31,14.101,39.206,23.742,56.568
				c1.615,2.921,3.269,5.767,4.95,8.524C829.252,380.65,833.481,386.826,837.764,392.28z"/>
			<path style="fill:#092957;" d="M877.649,370.553l6.211,20.223c-19.137,5.723-36.24,10.177-53.049,15.763l-6.334-20.626
				L877.649,370.553z"/>
			<g>
				<path style="fill:#FFA77B;" d="M844.411,708.359l-23.098-6.096c1.136,1.753,6.007,27.992,3.949,37.416
					c4.186,0.521,5.944,1.583,10.227,2.166C840.209,731.374,842.199,720.139,844.411,708.359z"/>
				<g>
					<path style="fill:#141D1E;" d="M800.7,746.238c2.246-1.683,6.474-1.371,10.515-2.539c1.342-0.387,2.688-0.765,3.927-1.187
						c1.987-0.675,3.704-1.453,4.696-2.529c0.167-0.183,5.25-4.71,6.044-8.495h15.582c2.059,4.349,1.487,9.706,1.487,14.358
						c0,0.762-0.053,2.239-0.135,3.87c-0.094,1.98-0.232,4.19-0.363,5.622l-42.507-0.593
						C797.666,753.608,798.43,747.942,800.7,746.238z"/>
					<path style="fill:#141D1E;" d="M801.506,743.873c2.828-2.177,8.068-2.557,11.624-2.552c4.529,0.003,9.548-0.24,13.55,2.053
						c1.985,1.139,3.161,2.741,4.245,4.75c0.816,1.51,1.626,5.257,2.057,5.672l-35.166,0.851
						C799.311,751.16,797.813,746.711,801.506,743.873z"/>
					<path style="fill:#080C0C;" d="M844.307,755.719c0.106-0.299,0.165-0.618,0.165-0.949c0-1.781-1.652-3.228-3.689-3.228h-41.206
						c-2.036,0-3.685,1.447-3.685,3.228c0,0.331,0.056,0.651,0.162,0.949H844.307z"/>
					<g>
						<path style="fill:#080C0C;" d="M826.388,752.869c3.496-1.773,7.16-3.409,9.751-6.459c2.457-2.895,3.357-7.241,2.847-11.07
							c-0.153-1.165-0.758-2.598-1.635-3.852h4.113c2.06,4.349,1.488,9.706,1.488,14.358c0,0.762-0.054,2.239-0.136,3.87
							c-0.094,1.98-0.229,4.19-0.36,5.622h-19.607C823.866,754.238,825.011,753.572,826.388,752.869z"/>
					</g>
				</g>
				<g>
					<path style="fill:#FFA77B;" d="M1024.805,729.815l-6.949,22.858c1.791-1.072,28.196-4.965,37.535-2.563
						c0.677-4.162,1.8-5.878,2.542-10.138C1047.645,734.87,1036.492,732.462,1024.805,729.815z"/>
					<path style="fill:#141D1E;" d="M1069.159,742.745l-7.254,17.872l-3.045,7.494l-12.057,0.786
						c0.067-0.422,0.123-0.844,0.163-1.277c0.126-1.394,0.266-2.78,0.323-4.095c0.097-2.093-0.008-3.97-0.651-5.284
						c-0.031-0.085-0.38-1.003-0.967-2.243c-1.005-2.109-2.709-5.14-4.751-6.481l5.663-14.513c4.801-0.34,9.592,2.137,13.916,3.832
						c0.72,0.275,2.077,0.86,3.563,1.529C1065.867,741.172,1067.874,742.11,1069.159,742.745z"/>
					<path style="fill:#141D1E;" d="M1061.905,760.617l-3.045,7.494l-12.057,0.786l-16.729,1.082
						c1.349-3.549-0.323-7.934,3.236-10.917c2.744-2.295,7.961-2.892,11.519-3.027c0.279-0.011,0.563-0.018,0.843-0.038
						c4.293-0.182,8.941-0.464,12.772,1.535C1059.937,758.302,1060.998,759.349,1061.905,760.617z"/>
					<path style="fill:#080C0C;" d="M1070.475,741.178c-0.968-0.364-1.976-0.062-2.257,0.67l-9.417,24.981l-29.214,2.233
						c-0.844,0.066-1.467,0.885-1.394,1.833c0.074,0.948,0.812,1.661,1.656,1.597l29.87-2.283c0.187-0.014,0.358-0.07,0.517-0.15
						c0.756,0.078,1.435-0.216,1.658-0.799l9.834-26.086C1072.004,742.437,1071.447,741.544,1070.475,741.178z"/>
				</g>
				<g>
					<path style="fill:#004F9E;" d="M981.151,518.583c-12.766,17.829-23.588,37.443-36.097,54.843
						c-6.466,8.987-8.67,7.054-15.809,16.788c-1.884,0.121-3.803,0.245-5.76,0.355c-29.886,1.724-68.331,2.212-103.669-0.857
						c-7.826-0.685-15.491-1.539-22.879-2.592c-39.506-5.623-71.042-16.971-75.261-37.894c-0.513-2.508-0.624-5.146-0.317-7.922
						c3.986-35.817,177.719-37.7,194.091-38.58L981.151,518.583z"/>
					<path style="fill:#004F9E;" d="M849.349,713.311l-27.723-1.626c-3.192-4.584-10.698-14.696-20.272-27.903
						c-28.343-39.068-74.688-105.112-79.995-134.323l0.317-0.233l32.319-23.49c8.805,8.391,26.497,8.902,38.591,19.945
						c8.498,7.764,14.81,16.349,19.968,26.545c2.691,5.345,5.061,11.14,7.263,17.485c0.648,1.873,1.286,3.789,1.909,5.76
						C830.859,624.452,845.276,668.472,849.349,713.311z"/>
					<path style="fill:#092957;" d="M927.607,580.028c-1.163,3.828-2.533,7.327-4.122,10.541
						c-29.886,1.724-68.331,2.212-103.669-0.857c0.648,1.873,1.286,3.789,1.909,5.76c9.132,28.981,23.549,73.002,27.623,117.84
						l-27.723-1.626c-3.192-4.584-10.698-14.696-20.272-27.903c15.699-4.708,26.951-13.487,25.714-37.455
						c-0.72-13.987-16.104-59.341-37.184-51.54c1.701-3.021,4.193-5.611,7.054-7.667c2.949-2.115,6.273-3.682,9.539-4.646
						c-7.887-3.02-22.364-7.299-30.337-3.874c3.918-8.761,18.911-13.956,32.451-13.652c12.361,0.282,87.225,4.077,92.93-14.673
						L927.607,580.028z"/>
				</g>
				<path style="fill:#004F9E;" d="M989.565,593.479c-10.285,20.824-43.971,65.7-75.949,103.214
					c-3.986,4.672-7.935,9.232-11.809,13.608c-23.357,26.378-43.987,46.419-51.357,46.897c-0.477,0.035-0.906-0.026-1.272-0.16
					c-33.664-12.864,46.746-179.711,52.749-194.973l26.5-64.783c16.321,2.996,57.811-11.739,60.917-27.538
					c12.093,17.547,18.541,32.33,20.874,45.976C1014.706,541.887,1004.165,563.924,989.565,593.479z"/>
				<path style="fill:#004F9E;" d="M1030.418,727.607l-0.574,26.226c-23.833,1.261-47.92,4.734-71.973,5.308
					c-20.96,0.512-40.854,0.722-61.713,1.347c-14.786,0.452-32.478,0.266-45.806-2.875c0,0,26.226-49.194,37.112-54.939
					c2.115-1.126,4.328-2.068,6.663-2.766c6.628-1.968,13.022-3.006,19.491-3.215c10.053-0.341,20.275,1.285,31.842,4.427
					c23.734,6.454,49.694,14.32,74.821,22.951C1023.682,725.234,1027.055,726.419,1030.418,727.607z"/>
				<g>
					<path style="fill:#092957;" d="M1020.28,724.071c-15.028-1.172-30.043-4.719-44.581-7.679
						c-20.885-4.256-56.75-15.506-74.846,0.906c0.196-2.215,0.451-4.636,0.955-6.997c0.548-2.638,1.369-5.23,2.675-7.469
						c-7.422,3.058-15.918,5.919-21.753,12.644c1.026-4.377,2.667-8.656,4.734-12.802c5.222-10.515,13.155-20.176,20.555-28.529
						c13.694-15.467,28.406-30.568,42.417-45.794c14.306-15.565,28.369-36.5,38.125-55.207
						c6.692-12.803,13.977-26.976,17.938-40.806c0.882-3.08,2.631-9.672,3.719-16.618c4.488,26.167-6.052,48.203-20.653,77.759
						c-10.285,20.824-43.971,65.7-75.949,103.214c10.053-0.341,20.275,1.285,31.842,4.427
						C969.193,707.575,995.153,715.44,1020.28,724.071z"/>
				</g>
				<g>
					<path style="fill:#961A02;" d="M880.45,529.655c0.054,0.034,0.104,0.065,0.158,0.099c-0.046-0.042-0.089-0.08-0.135-0.124
						C880.153,529.349,880.146,529.359,880.45,529.655z"/>
					<path style="fill:#092957;" d="M932.378,515.348c-5.095,4.04-24.476,23.401-30.044,27.667
						c-7.241-4.574-14.693-8.644-21.726-13.261c8.703,8.227,14.27,15.306,13.578,27.856c-0.218,3.956,1.245,11.276-0.494,19.953
						c5.251-9.999,10.132-20.008,15.801-29.937C916.011,536.214,926.324,526.469,932.378,515.348z"/>
				</g>
			</g>
			<g>
				<g>
					<path style="fill:#878787;" d="M713.935,475.28c0,0-6.457-2.293-8.181-7.771c0,0-0.631-3.692-7.924-5.371
						c-0.002-0.004-39.312-9.091-39.312-9.091c-0.008,0.023-0.011,0.042-0.01,0.044c-7.296-1.68-9.478,1.359-9.478,1.359
						c-3.95,4.176-10.757,3.412-10.757,3.412s-7.19-0.552-10.165-7.495c0.466-2.022,0.466-2.022,0.466-2.022l8.083,1.864
						l5.943-5.605l-2.898-7.61l-8.085-1.86c0,0,0,0,0.467-2.026c5.712-4.94,12.419-2.287,12.419-2.287l-0.004,0.012
						c0,0,6.458,2.292,8.18,7.774c0,0,0.631,3.688,7.924,5.368c0,0,39.323,9.048,39.323,9.046c7.295,1.682,9.478-1.36,9.478-1.36
						c3.945-4.175,10.759-3.408,10.759-3.408s7.186,0.549,10.163,7.49c-0.466,2.025-0.466,2.025-0.466,2.025l-8.081-1.86
						l-5.874,5.602l2.831,7.609l8.077,1.862c0,0,0,0-0.466,2.022c-5.712,4.942-12.419,2.29-12.419,2.29L713.935,475.28z"/>
					<path style="fill:#6E6E6E;" d="M702.007,459.28l0.404-1.754c0.148-0.648-0.254-1.292-0.899-1.441l-41.652-9.599
						c-0.645-0.148-1.29,0.256-1.439,0.902l-0.405,1.756c-0.147,0.644,0.256,1.293,0.901,1.44l41.648,9.598
						C701.212,460.332,701.856,459.926,702.007,459.28z"/>
				</g>
				<g>
					<g>
						<g>
							<path style="fill:#FFA77B;" d="M779.007,469.637c-0.134,0.002-0.262,0.022-0.394,0.026
								c-11.681,0.625-24.257-0.501-35.636,0.923c-1.421,0.164-2.814,0.382-4.195,0.653c-2.811-5.78-6.984-12.272-8.887-18.323
								c-0.098-0.332-0.191-0.647-0.288-0.964c2.262-0.595,4.49-1.245,6.695-1.945c32.953-10.373,60.982-30.699,90.337-49.389
								c15.913-10.144,30.091-14.886,42.309-16.371c5.894-0.715,11.33-0.674,16.301-0.121c3.845,0.426,7.397,1.158,10.663,2.098
								c16.903,4.814,26.022,14.876,26.022,14.876c0.099,11.697-16.826,24.859-29.265,33.996
								c-12.514,9.203-26.478,15.975-41.121,21.041c-4.285,1.476-8.62,2.814-12.987,4.014
								C819.589,465.402,798.758,468.49,779.007,469.637z"/>
						</g>
						<path style="fill:#DD7458;" d="M737.913,449.481c0,0,23.86,0.474,53.084-14.658c13.383-6.928,25.66-16.227,38.302-24.913
							c6.594-4.524,13.313-7.835,20.761-10.607c6.093-2.269,17.509-2.713,21.378-5.145l-2.49-9.911
							c-12.218,1.485-26.395,6.227-42.309,16.371C797.764,419.001,770.17,438.961,737.913,449.481z"/>
					</g>
					<path style="fill:#FFA77B;" d="M692.232,456.285c2.529-3.418,9.74-8.127,13.474-9.876c13.022-6.103,20.476,3.685,33.774,5.777
						l5.563,16.336c-2.992,4.678-17.416,16.687-25.118,15.273c-4.343-0.798-10.693-5.81-13.776-7.446
						c-5.643-2.998-6.659-1.469-11.763-7.373C688.852,462.577,685.723,465.085,692.232,456.285z"/>
				</g>
				<g>
					<path style="fill:#FF2D0B;" d="M966.609,340.815c-3.844,33.192-16.082,52.635-32.138,79.059
						c-7.7-2.083-25.08-8.555-41.464-15.638c0,0.006,0,0.006-0.006,0c-18.563-8.034-35.846-16.859-36.303-20.999
						c-0.186-1.658,42.77-112.92,66.597-120.691c20.105-6.563,31.648,3.959,33.596,5.379c4.159,3.022,7,7.765,8.884,13.466
						C971.815,299.614,968.133,327.658,966.609,340.815z"/>
				</g>
			</g>
			<path style="fill:#D80F00;" d="M966.609,340.815c-3.844,33.192-16.082,52.635-32.138,79.059
				c-7.7-2.083-25.08-8.555-41.464-15.638c0.598-0.198,1.182-0.398,1.754-0.61c8.227-3.028,16.539-4.943,23.469-10.265
				c17.225-13.228,29.752-40.827,36.328-60.901c3.785-11.544,7.636-23.351,9.481-35.32c0.668-4.371,1.472-10.04,1.736-15.747
				C971.815,299.614,968.133,327.658,966.609,340.815z"/>
			<path style="fill:#DD7458;" d="M803.495,259.07c0,0,13.799-0.768,19.529-4.206c9.014-5.408,8.891-10.703,12.273-15.511
				C827.182,247.772,813.409,255.465,803.495,259.07z"/>
		</g>
		<g>
			<g>
				<path style="fill:#3EB5E5;" d="M284.993,776.36c-8.64,4.724-37.783,11.064-36.149,24.015
					c1.92,15.292,232.519,25.628,242.685,5.61c11.622-22.898-60.212-18.397-71.235-28.087c13.243-14.864,41.759-15.17,71.65-14.36
					c42.339,1.151,87.434,4.548,95.802-27.978c-14.898-18.255-175.378-16.906-175.378-16.906c-48.071-6.476-84.648-6.128-132.787,0
					c-27.107,3.458-54.982,10.219-102.148,10.219c-41.807,0-66.252,3.542-80.748,8.245c-20.692,6.728-21.107,15.818-22.776,20.353
					C67.339,775.297,269.318,762.469,284.993,776.36z"/>
				<g style="opacity:0.5;">
					<g>
						<path style="fill:#3EB5E5;" d="M284.993,776.36c-8.64,4.724-37.783,11.064-36.149,24.015
							c1.92,15.292,232.519,25.628,242.685,5.61c11.622-22.898-60.212-18.397-71.235-28.087c13.243-14.864,41.759-15.17,71.65-14.36
							c-20.386-2.955-40.982-3.588-60.429-4.133c-50.781-1.422-35.931,30.79,1.322,42.549c-33.181,2.52-66.068-1.675-99.487-1.586
							c-14.965,0.04-38.933,2.586-33.186-14.803c4.324-13.093,24.131-13.904,24.655-29.789c-19.902-9.158-47.138-3.622-69.103-4.433
							c-32.431-1.198-65.468-0.374-98.158-2.002c-13.407-0.667-49.759,0.354-60.872-12.222
							c-20.692,6.728-21.107,15.818-22.776,20.353C67.339,775.297,269.318,762.469,284.993,776.36z"/>
					</g>
				</g>
				<path style="fill:#80E1FF;" d="M349.695,722.74c-15.152-0.117-54.536-0.34-65.372,10.221
					c-19.7,19.201,23.243,20.575,36.048,26.551c-8.015,2.202-15.261,6.233-18.884,13.893c16.571,19.085,63.614,17.095,86.405,12.665
					c-13.606,0.173-75.51-16.726-39.935-32.687c-7.989-5.401-19.699-6.904-27.06-14.299c7.607-10.137,26.206-10.68,32.883-14.301
					L349.695,722.74z"/>
			</g>
			<g>
				<path style="fill:#5E546C;" d="M561.292,654.774c0,8.033,6.512,14.544,14.544,14.544h42.911c8.032,0,14.544-6.511,14.544-14.544
					V326.049c0-8.032-6.511-14.543-14.544-14.543h-42.911c-8.032,0-14.544,6.511-14.544,14.543V654.774z"/>
				<g>
					<g>
						<path style="fill:#242226;" d="M243.663,735.678c0,4.498-3.646,8.144-8.144,8.144H176.58c-4.498,0-8.143-3.646-8.143-8.144
							l0,0c0-4.496,3.645-8.142,8.143-8.142h58.938C240.016,727.536,243.663,731.182,243.663,735.678L243.663,735.678z"/>
						<path style="fill:#242226;" d="M457.696,735.678c0,4.498-3.647,8.144-8.143,8.144h-58.941c-4.496,0-8.143-3.646-8.143-8.144
							l0,0c0-4.496,3.646-8.142,8.143-8.142h58.941C454.05,727.536,457.696,731.182,457.696,735.678L457.696,735.678z"/>
						<path style="fill:#242226;" d="M601.935,735.678c0,4.498-3.646,8.144-8.145,8.144h-58.938c-4.497,0-8.143-3.646-8.143-8.144
							l0,0c0-4.496,3.646-8.142,8.143-8.142h58.938C598.289,727.536,601.935,731.182,601.935,735.678L601.935,735.678z"/>
					</g>
					<g>
						<path style="fill:#9A97A0;" d="M617.45,245.93v474.618c0,8.569-6.94,15.511-15.51,15.511H270.016
							c-8.569,0-15.509-6.942-15.509-15.511V245.93c0-8.563,6.94-15.511,15.509-15.511H601.94
							C610.51,230.419,617.45,237.367,617.45,245.93z"/>
						<path style="fill:#FFFFFF;" d="M476.305,245.93v474.618c0,8.569-6.189,15.511-13.82,15.511H166.74
							c-7.639,0-13.82-6.942-13.82-15.511V245.93c0-8.563,6.181-15.511,13.82-15.511h295.746
							C470.117,230.419,476.305,237.367,476.305,245.93z"/>
						<path style="fill:#796C86;" d="M419.646,496.741c-0.023,4.344-0.264,8.663-0.721,12.975c-0.024,0.241-0.048,0.434-0.062,0.589
							c-0.008,0.071-0.016,0.141-0.023,0.218c0,0.006,0,0.022-0.008,0.031v0.007c-0.016,0.093-0.032,0.187-0.048,0.295
							c-0.154,1.053-0.332,2.101-0.519,3.15c-0.42,2.427-0.954,4.824-1.527,7.22c-0.977,4.055-2.234,8.042-3.645,11.966
							c-0.35,0.97-0.729,1.939-1.102,2.9c-0.117,0.286-0.201,0.505-0.263,0.667c-0.006,0.031-0.023,0.062-0.038,0.101
							c0,0.015-0.009,0.03-0.016,0.038c-0.031,0.07-0.07,0.147-0.101,0.225c-0.961,2.202-2.008,4.359-3.101,6.492
							c-1.862,3.644-3.963,7.164-6.205,10.594c-1.108,1.706-2.294,3.364-3.497,5.01c-0.163,0.225-0.287,0.395-0.38,0.526
							c-0.055,0.072-0.092,0.125-0.131,0.173c-0.047,0.053-0.093,0.115-0.149,0.177c-0.837,1.071-1.704,2.109-2.582,3.142
							c-2.628,3.109-5.457,6.041-8.39,8.847c-1.474,1.404-2.993,2.753-4.538,4.079c-0.767,0.667-1.558,1.312-2.348,1.955
							c-0.279,0.232-0.567,0.458-0.854,0.683c0,0-0.015,0.016-0.053,0.039c-0.017,0.015-0.039,0.038-0.063,0.046
							c-0.132,0.093-0.364,0.272-0.698,0.527c-6.848,5.096-14.31,9.339-22.101,12.797c-0.039,0.015-0.077,0.038-0.118,0.055
							c-0.008,0.008-0.023,0.008-0.038,0.015c-0.164,0.062-0.443,0.171-0.876,0.348c-0.953,0.389-1.931,0.745-2.901,1.109
							c-1.947,0.722-3.925,1.366-5.909,1.976c-2.102,0.653-4.226,1.227-6.376,1.745c-2.28,0.552-4.59,1.025-6.901,1.452
							c-1.04,0.185-2.095,0.35-3.141,0.512c-0.062,0.007-0.123,0.014-0.178,0.031c-0.04,0-0.078,0.008-0.124,0.016
							c-0.187,0.015-0.451,0.046-0.839,0.093c-2.139,0.247-4.296,0.41-6.443,0.542c-4.708,0.288-9.438,0.218-14.154-0.069
							c-1.813-0.109-3.621-0.279-5.428-0.489c-0.156-0.031-1.916-0.257-2.125-0.285c-1.047-0.165-2.087-0.35-3.133-0.545
							c-4.474-0.822-8.88-1.962-13.223-3.312c-14.494-4.489-29.011-13.277-40.241-24.025c-2.932-2.807-5.685-5.808-8.314-8.919
							c-0.652-0.773-1.296-1.565-1.931-2.365c-0.009-0.006-0.016-0.015-0.024-0.023c-0.039-0.053-0.086-0.109-0.117-0.154
							c-0.1-0.149-0.271-0.374-0.511-0.699c-1.427-1.908-2.761-3.878-4.064-5.871c-2.242-3.428-4.249-6.996-6.111-10.64
							c-0.932-1.838-1.792-3.709-2.629-5.585c-0.015-0.039-0.032-0.078-0.055-0.116c0-0.016-0.008-0.023-0.014-0.039
							c-0.063-0.163-0.17-0.441-0.35-0.876c-0.512-1.279-0.984-2.583-1.456-3.878c-1.413-3.93-2.56-7.949-3.538-12.012
							c-0.496-2.047-0.899-4.126-1.279-6.196c-0.193-1.048-0.357-2.096-0.519-3.15c-0.008-0.054-0.016-0.108-0.025-0.155
							c-0.006-0.031-0.006-0.063-0.014-0.093c-0.077-0.651-0.147-1.303-0.218-1.954c-0.457-4.319-0.62-8.671-0.598-13.006
							c0.009-2.179,0.109-4.35,0.241-6.522c0.062-1.078,0.164-2.156,0.257-3.227c0.029-0.341,0.326-2.877,0.326-3.055v-0.008
							c1.201-8.375,3.435-16.581,6.452-24.482c0.062-0.172,0.606-1.498,0.736-1.854c0.009-0.007,0.009-0.023,0.016-0.03
							c0-0.023,0.007-0.039,0.015-0.054c0.286-0.645,0.573-1.288,0.868-1.931c0.853-1.869,1.777-3.708,2.732-5.53
							c2.047-3.933,4.372-7.708,6.862-11.369c0.576-0.845,1.164-1.676,1.762-2.497c0.116-0.164,1.092-1.459,1.208-1.637
							c0.008-0.015,0.015-0.024,0.015-0.024c1.064-1.342,2.165-2.653,3.281-3.954c2.877-3.343,5.987-6.477,9.221-9.462
							c1.488-1.38,3.04-2.697,4.606-4c0.542-0.451,1.093-0.893,1.645-1.319c0.007,0,0.007,0,0.014-0.009
							c0.178-0.116,1.458-1.093,1.62-1.209c3.576-2.614,7.322-4.971,11.17-7.158c3.287-1.877,6.699-3.529,10.159-5.056h0.008
							c0.038,0,1.745-0.707,1.937-0.783c0.962-0.38,1.94-0.729,2.909-1.079c2.287-0.821,4.606-1.542,6.94-2.218
							c4.049-1.178,8.167-2.071,12.316-2.784c0.721-0.132,1.449-0.24,2.179-0.341l-0.007,0.008c0.115,0,1.922-0.232,2.14-0.255
							c2.505-0.273,5.017-0.427,7.538-0.528c4.358-0.185,8.717-0.062,13.06,0.241c0.691,0.046,1.373,0.109,2.055,0.17
							c0.388,0.041,0.776,0.079,1.164,0.118c0.21,0.022,2.033,0.247,2.141,0.247c0.007,0,0.007,0,0.007,0
							c2.118,0.31,4.219,0.698,6.321,1.116c4.11,0.831,8.15,1.948,12.144,3.221c1.978,0.634,3.925,1.348,5.864,2.085
							c0.171,0.062,1.504,0.612,1.853,0.745c0.008,0.007,0.015,0.007,0.023,0.007c0.025,0,0.048,0.015,0.063,0.023
							c0.962,0.42,1.916,0.861,2.87,1.305c3.714,1.728,7.311,3.707,10.817,5.822c1.752,1.062,3.459,2.188,5.142,3.328
							c0.845,0.573,1.675,1.17,2.505,1.767c0.519,0.373,1.023,0.752,1.535,1.133c0.047,0.031,0.1,0.076,0.163,0.125
							c6.662,5.242,12.665,11.299,18.016,17.859c0.239,0.303,0.481,0.599,0.721,0.9v0.008c0.077,0.109,0.271,0.357,0.573,0.761
							c1.016,1.365,1.985,2.76,2.939,4.172c1.722,2.537,3.304,5.156,4.817,7.825c1.519,2.675,2.9,5.435,4.203,8.229
							c0.131,0.294,1.078,2.513,1.17,2.691c0.552,1.357,1.055,2.721,1.544,4.094c2.132,5.917,3.691,12.027,4.823,18.21
							c0.218,1.194,0.403,2.396,0.575,3.598c-0.124-0.63,0.341,3.287,0.394,3.893C419.522,490.219,419.63,493.484,419.646,496.741z"
							/>
						<path style="fill:#5E546C;" d="M419.646,496.741c-0.023,4.344-0.264,8.663-0.721,12.975c-0.024,0.241-0.048,0.434-0.062,0.589
							c-0.008,0.071-0.016,0.141-0.023,0.218c0,0.006,0,0.022-0.008,0.031v0.007c-0.016,0.093-0.032,0.187-0.048,0.295
							c-0.154,1.053-0.332,2.101-0.519,3.15c-0.42,2.427-0.954,4.824-1.527,7.22c-0.977,4.055-2.234,8.042-3.645,11.966
							c-0.35,0.97-0.729,1.939-1.102,2.9c-0.117,0.286-0.201,0.505-0.263,0.667c-0.006,0.031-0.023,0.062-0.038,0.101
							c0,0.015-0.009,0.03-0.016,0.038c-0.031,0.07-0.07,0.147-0.101,0.225c-0.961,2.202-2.008,4.359-3.101,6.492
							c-1.862,3.644-3.963,7.164-6.205,10.594c-1.108,1.706-2.294,3.364-3.497,5.01c-0.163,0.225-0.287,0.395-0.38,0.526
							c-0.055,0.072-0.092,0.125-0.131,0.173c-0.047,0.053-0.093,0.115-0.149,0.177c-0.837,1.071-1.704,2.109-2.582,3.142
							c-2.628,3.109-5.457,6.041-8.39,8.847c-1.474,1.404-2.993,2.753-4.538,4.079c-0.767,0.667-1.558,1.312-2.348,1.955
							c-0.279,0.232-0.567,0.458-0.854,0.683c0,0-0.015,0.016-0.053,0.039c-0.017,0.015-0.039,0.038-0.063,0.046
							c-0.132,0.093-0.364,0.272-0.698,0.527c-6.848,5.096-14.31,9.339-22.101,12.797c-0.039,0.015-0.077,0.038-0.118,0.055
							c-0.008,0.008-0.023,0.008-0.038,0.015c-0.164,0.062-0.443,0.171-0.876,0.348c-0.953,0.389-1.931,0.745-2.901,1.109
							c-1.947,0.722-3.925,1.366-5.909,1.976c-2.102,0.653-4.226,1.227-6.376,1.745c-0.775-0.069-1.543-0.154-2.31-0.239
							c-0.156-0.03-1.917-0.257-2.125-0.287c-1.047-0.163-2.087-0.348-3.133-0.543c-4.475-0.821-8.88-1.961-13.222-3.311
							c-14.496-4.492-29.014-13.278-40.243-24.027c-2.931-2.807-5.685-5.808-8.313-8.918c-0.652-0.775-1.295-1.566-1.932-2.365
							c-0.007-0.008-0.015-0.015-0.022-0.023c-0.039-0.054-0.086-0.109-0.117-0.155c-0.1-0.147-0.27-0.372-0.512-0.698
							c-1.425-1.908-2.76-3.877-4.063-5.871c-2.242-3.428-4.252-6.996-6.112-10.64c-0.929-1.839-1.79-3.708-2.627-5.584
							c-0.015-0.039-0.032-0.077-0.055-0.116c0-0.016-0.008-0.023-0.015-0.04c-0.063-0.163-0.172-0.441-0.35-0.875
							c-0.512-1.28-0.985-2.582-1.457-3.878c-1.411-3.931-2.559-7.95-3.536-12.012c-0.495-2.047-0.898-4.125-1.28-6.196
							c-0.193-1.049-0.356-2.094-0.519-3.149c-0.007-0.054-0.015-0.109-0.023-0.155c-0.008-0.031-0.008-0.062-0.015-0.093
							c-0.079-0.651-0.147-1.303-0.217-1.954c-0.457-4.319-0.62-8.67-0.597-13.005c0.008-2.18,0.109-4.351,0.241-6.523
							c0.062-1.077,0.163-2.156,0.255-3.226c0.031-0.341,0.326-2.878,0.326-3.056v-0.007c1.202-8.377,3.435-16.581,6.452-24.484
							c0.062-0.171,0.604-1.497,0.737-1.854c0.009-0.007,0.009-0.023,0.015-0.031c0-0.022,0.008-0.039,0.016-0.053
							c0.286-0.644,0.573-1.289,0.867-1.932c0.855-1.87,1.777-3.707,2.732-5.529c2.046-3.932,4.374-7.709,6.863-11.369
							c0.573-0.846,1.164-1.676,1.761-2.499c0.114-0.162,1.093-1.458,1.209-1.636c0.008-0.016,0.016-0.024,0.016-0.024
							c1.062-1.339,2.162-2.651,3.279-3.954c2.878-3.342,5.987-6.477,9.221-9.462c1.489-1.381,3.04-2.698,4.607-4.001
							c0.543-0.449,1.094-0.891,1.645-1.319c0.008,0,0.008,0,0.015-0.007c0.179-0.116,1.458-1.094,1.621-1.21
							c3.574-2.613,7.321-4.971,11.167-7.159c3.288-1.877,6.701-3.528,10.16-5.056h0.008c0.039,0,1.745-0.707,1.939-0.784
							c0.961-0.379,1.938-0.729,2.907-1.077c2.288-0.823,4.607-1.543,6.941-2.218c1.45-0.426,2.916-0.806,4.381-1.164
							c0.388,0.041,0.776,0.079,1.164,0.118c0.21,0.022,2.033,0.247,2.141,0.247c0.007,0,0.007,0,0.007,0
							c2.118,0.31,4.219,0.698,6.321,1.116c4.11,0.831,8.15,1.948,12.144,3.221c1.978,0.634,3.925,1.348,5.864,2.085
							c0.171,0.062,1.504,0.612,1.853,0.745c0.008,0.007,0.015,0.007,0.023,0.007c0.025,0,0.048,0.015,0.063,0.023
							c0.962,0.42,1.916,0.861,2.87,1.305c3.714,1.728,7.311,3.707,10.817,5.822c1.752,1.062,3.459,2.188,5.142,3.328
							c0.845,0.573,1.675,1.17,2.505,1.767c0.519,0.373,1.023,0.752,1.535,1.133c0.047,0.031,0.1,0.076,0.163,0.125
							c6.662,5.242,12.665,11.299,18.016,17.859c0.239,0.303,0.481,0.599,0.721,0.9v0.008c0.077,0.109,0.271,0.357,0.573,0.761
							c1.016,1.365,1.985,2.76,2.939,4.172c1.722,2.537,3.304,5.156,4.817,7.825c1.519,2.675,2.9,5.435,4.203,8.229
							c0.131,0.294,1.078,2.513,1.17,2.691c0.552,1.357,1.055,2.721,1.544,4.094c2.132,5.917,3.691,12.027,4.823,18.21
							c0.218,1.194,0.403,2.396,0.575,3.598c-0.124-0.63,0.341,3.287,0.394,3.893C419.522,490.219,419.63,493.484,419.646,496.741z"
							/>
						<path style="fill:#C7C1CD;" d="M437.477,460.457c0-0.006,0-0.006,0-0.012v-0.006c-2.693-8.973-6.357-17.637-10.92-25.801
							c-1.871-3.361-3.895-6.62-6.074-9.795c-3.427-5.007-7.218-9.769-11.37-14.256c-3.381-3.657-7-7.135-10.837-10.381
							c-29.361-24.836-67.869-34.619-105.618-28.069c-13.453,2.339-26.334,7.076-38.147,13.729
							c-19.681,11.069-36.406,27.446-47.905,46.87c-18.987,32.094-22.516,72.677-9.57,107.605
							c10.67,28.783,31.2,52.218,57.476,67.021c5.733,3.239,11.75,6.068,17.991,8.445c34.928,13.312,75.466,9.062,107.604-9.57
							c11.371-6.588,21.463-14.918,30.049-24.528c4.031-4.5,7.726-9.282,11.056-14.296c2.128-3.168,4.101-6.447,5.92-9.789
							c4.48-8.207,8.08-16.917,10.703-25.935c3.259-11.21,5-22.901,5.078-34.735v-0.385
							C442.844,484.279,440.98,472.104,437.477,460.457z M414.119,530.235c-0.329,0.991-0.669,1.967-1.029,2.958
							c-0.347,0.97-0.726,1.934-1.099,2.898c-0.115,0.283-0.198,0.502-0.263,0.668c-0.006,0.026-0.026,0.059-0.038,0.097
							c0,0.019-0.007,0.032-0.019,0.038c-0.026,0.071-0.065,0.148-0.096,0.225c-0.964,2.205-2.012,4.365-3.105,6.492
							c-0.591,1.157-1.201,2.294-1.838,3.426c-0.213,0.379-0.425,0.758-0.643,1.131c-0.862,1.498-1.762,2.977-2.694,4.435
							c-0.063,0.103-0.128,0.206-0.193,0.309c-0.154,0.245-0.308,0.489-0.469,0.727c-0.032,0.052-0.07,0.102-0.103,0.154
							c0,0.007,0,0.007-0.006,0.013c0,0.012-0.007,0.032-0.026,0.038v0.007c-0.077,0.115-0.154,0.237-0.232,0.353
							c-1.112,1.709-2.294,3.368-3.497,5.014c-0.167,0.224-0.289,0.392-0.379,0.527c-0.058,0.07-0.096,0.121-0.136,0.173
							c-0.044,0.052-0.089,0.115-0.147,0.174c-0.836,1.073-1.704,2.108-2.584,3.143c-2.629,3.111-5.457,6.042-8.388,8.844
							c-1.472,1.407-2.996,2.757-4.538,4.081c-0.765,0.668-1.555,1.312-2.346,1.954c-0.283,0.231-0.572,0.457-0.854,0.681
							c0,0-0.02,0.019-0.058,0.038c-0.014,0.019-0.039,0.039-0.058,0.052c-0.135,0.09-0.366,0.27-0.7,0.528
							c-6.846,5.09-14.308,9.333-22.098,12.797c-0.039,0.013-0.077,0.032-0.122,0.052c-0.007,0.006-0.02,0.006-0.039,0.013
							c-0.161,0.065-0.437,0.174-0.874,0.353c-0.952,0.386-1.928,0.739-2.899,1.106c-1.948,0.72-3.928,1.368-5.913,1.98
							c-0.765,0.238-1.537,0.462-2.315,0.681c-0.263,0.077-0.533,0.154-0.796,0.225c-0.547,0.147-1.106,0.295-1.659,0.437
							c-0.533,0.135-1.067,0.27-1.607,0.398c-2.275,0.553-4.59,1.028-6.897,1.453c-1.042,0.186-2.096,0.347-3.142,0.514
							c-0.065,0.006-0.123,0.013-0.18,0.026c-0.039,0-0.077,0.013-0.122,0.019c-0.187,0.013-0.451,0.046-0.836,0.09
							c-2.141,0.251-4.3,0.411-6.446,0.546c-4.705,0.282-9.436,0.219-14.154-0.071c-1.813-0.109-3.618-0.276-5.425-0.488
							c-0.16-0.032-1.915-0.257-2.127-0.289c-1.048-0.161-2.089-0.347-3.131-0.54c-4.479-0.823-8.882-1.967-13.228-3.316
							c-0.45-0.142-0.899-0.276-1.356-0.431c-0.045-0.014-0.097-0.033-0.142-0.046c-0.302-0.103-0.603-0.205-0.906-0.302
							c-0.559-0.193-1.113-0.393-1.672-0.597c-0.687-0.252-1.381-0.508-2.069-0.785c-0.032-0.012-0.057-0.018-0.09-0.032
							c-0.398-0.154-0.803-0.315-1.202-0.482c-0.231-0.096-0.464-0.186-0.694-0.289c-0.373-0.147-0.747-0.308-1.113-0.468
							c-0.604-0.264-1.202-0.528-1.8-0.803c-0.816-0.374-1.638-0.759-2.448-1.157c-0.072-0.033-0.143-0.071-0.219-0.11
							c-0.231-0.115-0.469-0.23-0.707-0.353c-0.398-0.193-0.797-0.399-1.196-0.611c-0.179-0.083-0.353-0.18-0.526-0.27
							c-0.514-0.27-1.022-0.546-1.537-0.823c-0.012-0.007-0.026-0.019-0.044-0.026c-0.591-0.328-1.19-0.662-1.782-1.002
							c-0.449-0.251-0.899-0.514-1.349-0.785c-0.161-0.097-0.328-0.193-0.488-0.289c-0.271-0.161-0.54-0.322-0.811-0.489
							c-0.263-0.161-0.533-0.328-0.796-0.495c-0.315-0.199-0.63-0.392-0.945-0.591c-0.592-0.379-1.182-0.758-1.768-1.157
							c-0.302-0.198-0.598-0.398-0.893-0.597c-0.597-0.405-1.189-0.81-1.768-1.228c-0.59-0.411-1.163-0.829-1.735-1.253
							c0-0.006-0.006-0.006-0.006-0.006c-0.451-0.328-0.9-0.662-1.343-1.002c-0.347-0.264-0.688-0.528-1.029-0.791
							c-0.218-0.18-0.443-0.354-0.661-0.534c-0.16-0.122-0.322-0.244-0.476-0.372c-0.154-0.122-0.309-0.251-0.462-0.38
							c-0.283-0.219-0.56-0.456-0.843-0.688c-0.019-0.019-0.045-0.032-0.064-0.051c-0.243-0.193-0.482-0.398-0.72-0.604
							c-0.071-0.065-0.148-0.129-0.218-0.193c-0.187-0.154-0.373-0.315-0.56-0.476c-0.186-0.154-0.373-0.321-0.553-0.475
							c-0.026-0.026-0.052-0.046-0.077-0.065c-0.526-0.469-1.048-0.938-1.568-1.414c-0.54-0.494-1.073-0.989-1.601-1.498
							c-2.937-2.809-5.688-5.811-8.317-8.921c-0.649-0.771-1.292-1.569-1.928-2.365c-0.013-0.008-0.019-0.013-0.026-0.02
							c-0.039-0.057-0.083-0.109-0.116-0.154c-0.103-0.154-0.27-0.379-0.514-0.7c-1.427-1.909-2.758-3.876-4.063-5.869
							c-2.243-3.432-4.248-7-6.112-10.644c-0.933-1.838-1.788-3.709-2.629-5.585c-0.013-0.039-0.032-0.077-0.052-0.115
							c0-0.013-0.006-0.02-0.013-0.039c-0.065-0.161-0.173-0.437-0.353-0.874c-0.508-1.279-0.983-2.584-1.452-3.876
							c-1.414-3.933-2.565-7.95-3.542-12.013c-0.495-2.05-0.9-4.126-1.28-6.196c-0.192-1.048-0.353-2.095-0.52-3.149
							c-0.007-0.058-0.013-0.109-0.019-0.155c-0.013-0.032-0.013-0.064-0.02-0.096c-0.077-0.648-0.147-1.305-0.218-1.953
							c-0.456-4.32-0.617-8.671-0.597-13.003c0.012-2.179,0.109-4.351,0.244-6.524c0.058-1.08,0.161-2.154,0.257-3.227
							c0.026-0.34,0.322-2.873,0.322-3.053v-0.006c1.201-8.382,3.438-16.583,6.453-24.483c0.064-0.173,0.604-1.498,0.739-1.857
							c0.007-0.007,0.007-0.026,0.013-0.033c0-0.019,0.006-0.038,0.019-0.052c0.283-0.642,0.572-1.285,0.868-1.934
							c0.848-1.864,1.774-3.702,2.732-5.528c2.043-3.934,4.371-7.707,6.858-11.37c0.579-0.842,1.163-1.671,1.761-2.494
							c0.116-0.161,1.093-1.459,1.208-1.639c0.013-0.013,0.02-0.02,0.02-0.02c1.06-1.343,2.166-2.654,3.278-3.959
							c2.88-3.341,5.99-6.472,9.224-9.461c1.484-1.375,3.04-2.694,4.608-3.998c0.54-0.45,1.093-0.894,1.639-1.317
							c0.007-0.007,0.013-0.007,0.013-0.007c0.007-0.006,0.007-0.006,0.007-0.006c0.173-0.115,1.452-1.093,1.619-1.208
							c0.02-0.013,0.039-0.032,0.065-0.046c0.443-0.321,0.887-0.642,1.337-0.957c0.45-0.321,0.9-0.63,1.356-0.945
							c0.341-0.23,0.681-0.456,1.022-0.681c0.424-0.283,0.854-0.559,1.286-0.835c1.066-0.688,2.147-1.37,3.239-2.019
							c0.475-0.289,0.945-0.566,1.427-0.842c0.475-0.283,0.951-0.559,1.432-0.829c3.291-1.877,6.704-3.529,10.163-5.059h0.006
							c0,0,0.032-0.006,0.083-0.032c0.026-0.006,0.065-0.019,0.097-0.032c0.032-0.013,0.07-0.026,0.116-0.045
							c0.045-0.019,0.083-0.039,0.134-0.058c0.052-0.019,0.103-0.039,0.155-0.065c0.045-0.019,0.096-0.044,0.154-0.064h0.007
							c0.167-0.071,0.34-0.141,0.507-0.206c0.167-0.07,0.322-0.134,0.444-0.18c0.07-0.032,0.129-0.058,0.174-0.077
							c0.032-0.014,0.058-0.02,0.071-0.026c0.957-0.38,1.935-0.727,2.905-1.08c2.287-0.822,4.608-1.542,6.941-2.217
							c4.05-1.177,8.163-2.07,12.315-2.784c0.72-0.128,1.452-0.238,2.179-0.34l-0.006,0.006c0.115,0,1.922-0.23,2.14-0.256
							c2.507-0.271,5.02-0.425,7.54-0.528c4.357-0.186,8.716-0.057,13.054,0.243c0.54,0.039,1.08,0.085,1.613,0.129
							c0.155,0.019,0.29,0.026,0.438,0.038c0.386,0.039,0.784,0.077,1.169,0.117c0.212,0.026,2.032,0.25,2.14,0.25
							c0.006,0,0.006,0,0.006,0c2.122,0.308,4.223,0.701,6.325,1.119c4.107,0.829,8.15,1.947,12.141,3.22
							c1.98,0.629,3.928,1.343,5.862,2.083c0.173,0.064,1.504,0.61,1.857,0.746c0.007,0.006,0.013,0.006,0.02,0.006
							c0.026,0,0.052,0.013,0.064,0.026c0.964,0.418,1.915,0.854,2.873,1.298c3.709,1.729,7.308,3.709,10.817,5.824
							c1.749,1.067,3.459,2.191,5.142,3.33c0.842,0.572,1.671,1.169,2.5,1.767c0.521,0.373,1.022,0.752,1.536,1.131
							c0.045,0.032,0.103,0.078,0.161,0.129c6.665,5.239,12.669,11.3,18.017,17.856c0.244,0.302,0.482,0.597,0.727,0.9v0.006
							c0.077,0.109,0.269,0.36,0.572,0.764c1.016,1.363,1.986,2.758,2.938,4.172c0.071,0.103,0.141,0.198,0.212,0.308v0.013
							c0.366,0.527,0.713,1.06,1.054,1.594c0.245,0.373,0.482,0.752,0.714,1.131c0.025,0.045,0.058,0.09,0.09,0.136
							c0.141,0.218,0.283,0.449,0.418,0.681c0.032,0.052,0.065,0.109,0.097,0.161c0.765,1.248,1.504,2.519,2.23,3.799
							c1.523,2.68,2.905,5.437,4.203,8.227c0.134,0.296,1.08,2.513,1.17,2.693c0.553,1.355,1.054,2.718,1.549,4.094
							c0.167,0.469,0.329,0.931,0.489,1.401v0.007c0.032,0.09,0.064,0.173,0.089,0.263c0.084,0.258,0.174,0.508,0.258,0.758
							c0.109,0.347,0.225,0.694,0.334,1.035c0.141,0.444,0.283,0.887,0.418,1.324c0.052,0.168,0.096,0.329,0.147,0.495
							c0.071,0.225,0.135,0.457,0.199,0.681c0.135,0.437,0.257,0.874,0.373,1.312c0.013,0.038,0.026,0.083,0.033,0.122
							c0.083,0.257,0.147,0.508,0.212,0.764c0.006,0.033,0.019,0.065,0.026,0.097c0.109,0.38,0.212,0.752,0.302,1.131
							c0.007,0.032,0.019,0.064,0.026,0.097c0.057,0.193,0.103,0.391,0.147,0.591c0.155,0.579,0.296,1.17,0.438,1.755
							c0.116,0.495,0.231,0.99,0.335,1.485c0.05,0.198,0.09,0.405,0.134,0.603c0.019,0.065,0.032,0.117,0.039,0.18
							c0.096,0.437,0.187,0.874,0.276,1.317c0.045,0.22,0.089,0.438,0.135,0.657c0.025,0.109,0.045,0.218,0.064,0.327
							c0.123,0.604,0.238,1.202,0.347,1.806c0.22,1.175,0.399,2.36,0.566,3.548c0.007,0.006,0.007,0.006,0,0.012l-0.006-0.006
							c0,0.045,0.006,0.154,0.019,0.315c0.006,0.064,0.012,0.129,0.019,0.205c0.007,0.045,0.007,0.09,0.012,0.136
							c0.007,0.038,0.013,0.083,0.013,0.128c0.012,0.09,0.026,0.187,0.032,0.289c0.006,0.052,0.012,0.097,0.019,0.148
							c0.006,0.05,0.006,0.096,0.012,0.147v0.02c0.019,0.103,0.032,0.206,0.038,0.315c0.007,0.058,0.013,0.116,0.019,0.173
							c0.013,0.109,0.019,0.218,0.039,0.322c0.006,0.058,0.012,0.109,0.012,0.154v0.02c0.019,0.109,0.026,0.212,0.039,0.316
							c0.025,0.211,0.045,0.411,0.063,0.584c0.007,0.045,0.007,0.09,0.013,0.128c0.013,0.078,0.019,0.154,0.026,0.231
							c0.019,0.135,0.026,0.238,0.032,0.309c0.289,3.246,0.392,6.511,0.411,9.77c-0.026,4.345-0.264,8.665-0.72,12.971
							c-0.026,0.245-0.052,0.438-0.064,0.593c-0.007,0.07-0.019,0.141-0.026,0.218c0,0.006,0,0.025-0.007,0.032v0.006
							c-0.012,0.091-0.032,0.187-0.045,0.296c-0.154,1.054-0.334,2.102-0.521,3.149c-0.417,2.423-0.951,4.821-1.529,7.218
							c-0.116,0.502-0.245,1.003-0.379,1.504c-0.046,0.187-0.097,0.38-0.148,0.566c-0.013,0.077-0.032,0.161-0.065,0.237
							c0,0.007-0.006,0.013-0.006,0.02c-0.058,0.231-0.123,0.469-0.187,0.7c-0.097,0.367-0.199,0.733-0.309,1.1
							c-0.026,0.077-0.044,0.16-0.07,0.238c-0.014,0.064-0.026,0.116-0.045,0.174c-0.18,0.61-0.367,1.228-0.559,1.838
							c-0.231,0.758-0.476,1.53-0.732,2.288c0,0.007,0,0.007,0,0.013C414.196,530.011,414.158,530.127,414.119,530.235z"/>
						<path style="fill:#796C86;" d="M617.45,267.264v4.072H233.73c-0.613-0.093-1.241-0.14-1.885-0.14h-78.925v-3.932H617.45z"/>
						<rect x="152.921" y="682.533" style="fill:#796C86;" width="464.529" height="4.071"/>
						<path style="fill:#796C86;" d="M243.999,271.339c-2.012-1.877-4.454-3.291-7.16-4.076c-1.581-0.475-3.259-0.72-4.994-0.72
							h-78.924v4.654h78.924c0.643,0,1.272,0.045,1.883,0.142c6.382,0.912,11.299,6.408,11.299,13.042v56.216
							c0,7.269-5.913,13.183-13.182,13.183h-78.924v4.653h78.924c9.834,0,17.836-8.002,17.836-17.836v-56.216
							C249.682,279.232,247.496,274.591,243.999,271.339z"/>
						<path style="fill:#796C86;" d="M339.246,313.655c0,15.739-12.759,28.5-28.5,28.5c-15.74,0-28.499-12.76-28.499-28.5
							c0-15.74,12.759-28.499,28.499-28.499C326.488,285.155,339.246,297.914,339.246,313.655z"/>
						<circle style="fill:#FF2D0B;" cx="366.581" cy="298.24" r="9.887"/>
						<g>
							<path style="fill:#C7C1CD;" d="M400.84,298.24c0,4-3.241,7.241-7.242,7.241c-3.999,0-7.243-3.242-7.243-7.241
								c0-4.002,3.244-7.242,7.243-7.242C397.599,290.998,400.84,294.239,400.84,298.24z"/>
							<path style="fill:#C7C1CD;" d="M420.441,298.24c0,4-3.244,7.241-7.243,7.241c-4,0-7.243-3.242-7.243-7.241
								c0-4.002,3.243-7.242,7.243-7.242C417.197,290.998,420.441,294.239,420.441,298.24z"/>
							<path style="fill:#C7C1CD;" d="M440.039,298.24c0,4-3.243,7.241-7.243,7.241c-3.999,0-7.241-3.242-7.241-7.241
								c0-4.002,3.242-7.242,7.241-7.242C436.795,290.998,440.039,294.239,440.039,298.24z"/>
							<path style="fill:#C7C1CD;" d="M459.637,298.24c0,4-3.243,7.241-7.242,7.241c-4,0-7.243-3.242-7.243-7.241
								c0-4.002,3.243-7.242,7.243-7.242C456.394,290.998,459.637,294.239,459.637,298.24z"/>
						</g>
						<path style="fill:#FFFFFF;" d="M324.124,313.655c0,11.241-9.115,20.355-20.356,20.355c-11.243,0-20.357-9.115-20.357-20.355
							c0-11.243,9.115-20.357,20.357-20.357C315.009,293.297,324.124,302.411,324.124,313.655z"/>
						<g>
							<g>
								<path style="fill:#C7C1CD;" d="M523.516,427.76c-3.869-16.28-9.621-33.281-19.571-46.914
									c-6.743-9.23-16.159-17.792-27.639-19.521c-2.051-0.309-4.159-0.399-6.331-0.238c-2.012,0.147-3.953,0.468-5.817,0.957
									c-11.917,3.059-20.889,12.451-27.524,22.779c-7.719,12.033-12.648,26.025-16.152,40.019
									c-0.823,3.31-1.575,6.614-2.256,9.898c-1.922,9.211-3.342,18.551-4.293,27.928v0.007
									c-1.388,13.523-1.833,27.13-1.498,40.667c0.219,8.831,0.797,17.714,1.8,26.545c0,0.007,0,0.007,0,0.013
									c1.407,12.668,3.689,25.253,6.973,37.511c0.103,0.373,0.206,0.74,0.309,1.113c4.467,16.314,11.068,32.492,22.015,45.559
									c5.566,6.646,12.771,11.479,20.812,13.401c3.825,0.913,7.842,1.17,11.962,0.648c0.405-0.044,0.816-0.096,1.221-0.167
									c12.817-2.076,22.484-12.836,29.137-23.197c8.914-13.871,14.05-30.416,17.656-46.382
									c4.686-20.793,6.614-42.299,6.666-63.588C530.934,472.31,528.723,449.666,523.516,427.76z M463.894,601.704
									c-0.007-0.007-0.019-0.012-0.032-0.019c-1.028-0.932-1.979-1.928-2.912-2.957c-0.494-0.534-0.971-1.1-1.446-1.665
									c-0.065-0.083-0.122-0.154-0.173-0.218c-0.116-0.155-0.226-0.309-0.341-0.462c-1.98-2.706-3.696-5.612-5.302-8.55
									c-0.868-1.613-1.671-3.258-2.456-4.91c-0.205-0.431-0.405-0.861-0.604-1.298c-0.193-0.431-0.386-0.868-0.579-1.299
									c-0.025-0.057-0.051-0.115-0.07-0.167c-0.025-0.051-0.045-0.097-0.064-0.142c-0.2-0.489-0.399-0.977-0.591-1.465
									c-0.45-1.131-0.887-2.269-1.311-3.414c-0.264-0.727-0.521-1.452-0.785-2.179c-0.353-0.996-0.7-2.005-1.029-3.014
									c-0.314-0.971-0.63-1.942-0.931-2.918c-0.154-0.489-0.303-0.971-0.444-1.46c-0.444-1.465-0.861-2.937-1.26-4.415
									c-0.263-0.984-0.528-1.967-0.778-2.951c-0.232-0.906-0.457-1.806-0.668-2.712c-0.219-0.906-0.425-1.806-0.624-2.713
									c-0.09-0.379-0.174-0.758-0.25-1.137c-0.096-0.43-0.187-0.862-0.283-1.297c-0.186-0.869-0.36-1.73-0.527-2.591
									c-0.089-0.431-0.167-0.861-0.25-1.292c-0.174-0.881-0.335-1.762-0.495-2.636c-0.077-0.437-0.154-0.874-0.231-1.311
									c-0.077-0.443-0.148-0.881-0.219-1.317c-0.076-0.444-0.147-0.888-0.219-1.317c-0.224-1.377-0.437-2.752-0.635-4.115
									c-0.085-0.584-0.168-1.163-0.245-1.748c-0.109-0.778-0.211-1.556-0.308-2.327c-0.026-0.18-0.052-0.366-0.071-0.546
									c-0.07-0.585-0.141-1.164-0.205-1.755c-0.096-0.759-0.18-1.518-0.264-2.27c-0.083-0.752-0.167-1.51-0.245-2.256
									c-0.07-0.752-0.147-1.498-0.212-2.244c-0.161-1.696-0.302-3.412-0.43-5.142c-0.129-1.729-0.245-3.47-0.341-5.226
									c-0.096-1.754-0.18-3.522-0.25-5.296c-0.033-0.887-0.065-1.775-0.09-2.668c-0.026-0.887-0.052-1.78-0.07-2.673
									c-0.122-5.721-0.096-11.474,0.083-17.149c0.019-0.7,0.038-1.388,0.07-2.089c0.007-0.135,0.013-0.277,0.019-0.412
									c0.032-0.842,0.064-1.677,0.109-2.507c0.116-2.5,0.263-4.969,0.444-7.411c0.052-0.746,0.109-1.485,0.173-2.224
									c0.148-1.858,0.315-3.69,0.502-5.496c0.045-0.528,0.103-1.048,0.16-1.562c0.007-0.084,0.02-0.174,0.032-0.257
									c0.071-0.688,0.154-1.369,0.231-2.052c0-0.006,0-0.006,0-0.012v-0.006c0.007-0.077,0.019-0.161,0.032-0.238
									c0.181-1.529,0.38-3.034,0.586-4.506c0.09-0.624,0.18-1.246,0.27-1.864c0.835-5.599,1.877-11.165,3.117-16.686
									c0.829-3.676,1.755-7.333,2.771-10.966c1.162-4.145,2.506-8.24,3.977-12.276c0.052-0.135,0.103-0.263,0.148-0.399
									c0.264-0.688,0.527-1.375,0.79-2.063c0.052-0.129,0.103-0.264,0.154-0.392c0.071-0.18,0.443-1.074,0.637-1.562
									c0.783-1.793,1.613-3.567,2.487-5.308c0.765-1.556,1.588-3.079,2.449-4.577c0.436-0.746,0.88-1.492,1.33-2.225
									c0.456-0.732,0.919-1.465,1.395-2.185c0.321-0.475,1.729-2.358,2.089-2.872c0.861-1.036,1.761-2.032,2.7-3.002
									c0.475-0.488,0.982-0.964,1.491-1.414h0.007c0.102-0.103,0.212-0.199,0.334-0.302c0.122-0.052,1.851-1.383,2.417-1.73
									c0.45-0.269,1.607-0.803,2.218-1.092c0.276-0.084,0.559-0.174,0.848-0.238c0.16,0.032,1.96-0.181,3.091-0.207
									c0.051,0.02,0.11,0.033,0.18,0.045c0.565,0.129,1.125,0.296,1.671,0.482c0.335,0.141,0.694,0.296,0.926,0.411
									c0.238,0.129,0.482,0.257,0.714,0.399c0.649,0.372,1.279,0.783,1.896,1.201c0.064,0.039,0.109,0.07,0.167,0.11
									c0.013,0.007,0.013,0.012,0.032,0.026c0.873,0.727,1.684,1.516,2.494,2.307c0.675,0.675,1.311,1.383,1.941,2.089
									c0.257,0.289,1.029,1.253,1.324,1.6c1.17,1.614,2.256,3.291,3.297,4.988c1.388,2.269,2.629,4.622,3.805,7
									c0.559,1.118,1.087,2.256,1.601,3.407c0.122,0.263,0.231,0.527,0.347,0.79v0.006c0.077,0.205,0.675,1.627,0.771,1.845
									c7.926,19.881,11.557,39.896,12.965,60.47v0.032c0.533,7.669,0.752,15.414,0.778,23.256v0.083
									c-0.065,22.336-1.91,41.818-7.199,63.029c-1.08,4.332-2.333,8.6-3.722,12.836c-0.649,1.986-1.357,3.953-2.095,5.92
									c-0.347,0.945-0.727,1.87-1.099,2.808c-0.077,0.2-0.143,0.341-0.194,0.476c-0.18,0.418-0.366,0.829-0.552,1.247
									c-1.472,3.317-3.144,6.544-4.962,9.674c-0.843,1.433-1.749,2.828-2.668,4.204c-0.437,0.637-0.887,1.253-1.337,1.877
									c-0.128,0.148-0.314,0.367-0.578,0.681c-0.919,1.093-1.903,2.128-2.919,3.131c-0.404,0.405-1.857,1.614-2.281,2.005
									c-0.598,0.406-1.195,0.791-1.813,1.144c-0.064,0.052-0.123,0.084-0.186,0.116c-0.38,0.225-0.778,0.431-1.17,0.624
									c-0.103,0.032-0.206,0.064-0.327,0.109c-0.502,0.173-1.697,0.411-2.321,0.546c-0.546,0.019-1.099,0-1.652-0.013
									c-0.295-0.071-0.591-0.141-0.88-0.218c-0.495-0.122-0.977-0.283-1.465-0.45c-0.025-0.007-0.039-0.013-0.065-0.026
									c-1.092-0.54-2.121-1.195-3.143-1.87c-0.045-0.039-0.103-0.078-0.167-0.123
									C464.582,602.315,464.241,602.013,463.894,601.704z M470.372,605.284c-0.475-0.038-1.111-0.142-1.208-0.173
									C469.216,605.111,469.55,605.15,470.372,605.284z"/>
								<path style="fill:#FFFFFF;" d="M508.007,427.76c-3.869-16.28-9.621-33.281-19.572-46.914
									c-3.387-4.648-7.461-9.122-12.128-12.631c-3.689-2.777-7.752-4.962-12.148-6.171c-3.066-0.849-6.298-1.208-9.693-0.957
									c-14.874,1.092-25.665,11.794-33.34,23.736c-5.085,7.926-8.954,16.7-12.013,25.763c-2.674,7.957-4.719,16.134-6.395,24.155
									c-0.283,1.331-0.547,2.668-0.797,3.998v0.013c-4.081,21.23-5.534,43.013-4.994,64.591
									c0.418,16.872,2.147,33.898,5.573,50.501v0.007c1.016,4.929,2.179,9.827,3.502,14.674c1.216,4.415,2.585,8.838,4.152,13.183
									c4.217,11.679,9.899,22.85,17.87,32.376c8.484,10.13,20.76,16.03,33.995,13.883c0.79-0.122,1.568-0.289,2.327-0.482
									c4.377-1.093,8.356-3.195,11.962-5.894c6.004-4.519,10.953-10.741,14.847-16.821c8.915-13.871,14.045-30.416,17.651-46.382
									c4.692-20.793,6.62-42.299,6.672-63.588C515.424,472.31,513.213,449.666,508.007,427.76z M487.831,545.109
									c-0.089,0.488-0.187,0.984-0.283,1.478c-0.103,0.495-0.199,0.99-0.302,1.479c-0.045,0.225-0.09,0.457-0.136,0.681
									c-0.063,0.309-0.129,0.617-0.199,0.926c-0.019,0.116-0.045,0.231-0.07,0.347c-0.033,0.141-0.064,0.276-0.097,0.417
									c-0.092,0.449-0.189,0.888-0.29,1.33c-0.113,0.512-0.22,1.022-0.34,1.536c-0.097,0.437-0.199,0.881-0.309,1.324
									c-0.257,1.092-0.521,2.185-0.79,3.285c-1.08,4.332-2.333,8.6-3.722,12.836c-0.655,1.986-1.363,3.953-2.095,5.92
									c-0.085,0.237-0.174,0.468-0.264,0.706c-0.161,0.398-0.321,0.804-0.482,1.202c-0.116,0.302-0.238,0.604-0.36,0.907
									c-0.078,0.192-0.136,0.34-0.193,0.468c-0.18,0.418-0.36,0.829-0.546,1.247c-0.335,0.753-0.682,1.498-1.035,2.237
									c-0.006,0.013-0.006,0.025-0.013,0.039c-0.032,0.064-0.064,0.129-0.097,0.192c-0.269,0.566-0.546,1.125-0.829,1.685
									c-0.482,0.964-0.983,1.921-1.498,2.866c-0.147,0.276-0.302,0.553-0.462,0.83c-0.16,0.295-0.327,0.591-0.488,0.887
									c-0.18,0.315-0.36,0.623-0.54,0.938c-0.842,1.433-1.748,2.828-2.667,4.204c-0.438,0.637-0.887,1.26-1.337,1.877
									c-0.134,0.148-0.321,0.367-0.585,0.681c-0.913,1.093-1.895,2.128-2.912,3.137c-0.044,0.039-0.109,0.103-0.18,0.167
									c-0.212,0.199-0.527,0.463-0.849,0.746c-0.495,0.423-1.022,0.874-1.253,1.086c-0.655,0.444-1.318,0.869-1.999,1.26
									c-0.38,0.225-0.778,0.431-1.17,0.624c-0.103,0.032-0.205,0.064-0.327,0.109c-0.502,0.173-1.698,0.411-2.322,0.546
									c-0.546,0.019-1.099,0-1.651-0.013c-0.296-0.071-0.591-0.141-0.881-0.218c-0.495-0.122-0.977-0.283-1.465-0.45
									c-0.026-0.007-0.045-0.013-0.065-0.026c-1.093-0.54-2.127-1.195-3.143-1.87c-0.045-0.039-0.103-0.078-0.167-0.123
									c-0.354-0.296-0.694-0.598-1.036-0.907c-1.034-0.925-2.005-1.941-2.943-2.976c-0.494-0.534-0.971-1.1-1.446-1.665
									c-0.071-0.083-0.122-0.161-0.173-0.218c-0.123-0.155-0.226-0.309-0.341-0.462c-1.98-2.706-3.696-5.612-5.303-8.55
									c-0.868-1.613-1.671-3.258-2.455-4.91c-0.411-0.861-0.797-1.729-1.189-2.597c-0.045-0.121-0.091-0.218-0.129-0.308
									c-0.206-0.489-0.399-0.977-0.591-1.465c-2.706-6.788-4.911-13.833-6.685-20.929c-2.97-11.833-4.77-23.82-5.804-35.005
									c-2.051-21.891-1.569-46.889,1.26-66.923c1.002-7.077,2.32-14.108,3.972-21.057c0.675-2.834,1.401-5.656,2.186-8.458
									c1.163-4.145,2.506-8.24,3.977-12.283c0.36-0.951,0.72-1.903,1.093-2.854c0.071-0.174,0.443-1.068,0.637-1.556
									c0.784-1.793,1.613-3.567,2.487-5.308c1.536-3.105,3.279-6.1,5.175-8.987c0.322-0.475,1.729-2.365,2.089-2.872
									c0.861-1.036,1.761-2.032,2.699-3.002c0.585-0.597,1.201-1.163,1.826-1.715c0.129-0.052,1.857-1.383,2.423-1.73
									c0.45-0.269,1.6-0.803,2.218-1.092c0.276-0.084,0.559-0.174,0.841-0.238c0.167,0.032,1.967-0.181,3.098-0.207
									c0.051,0.02,0.109,0.033,0.18,0.045c0.565,0.129,1.125,0.296,1.671,0.482c0.334,0.141,0.694,0.296,0.926,0.411
									c0.907,0.475,1.767,1.022,2.61,1.6c0.065,0.039,0.109,0.07,0.167,0.11c0.014,0.007,0.014,0.012,0.026,0.026
									c0.354,0.289,0.682,0.578,1.016,0.893h0.007c0.508,0.469,0.99,0.932,1.478,1.414c0.508,0.508,0.989,1.028,1.466,1.562
									c0.16,0.173,0.321,0.354,0.475,0.527c0.065,0.071,0.16,0.187,0.269,0.322c0,0-0.006,0.006,0,0.006
									c0.065,0.072,0.123,0.143,0.18,0.212c0.316,0.386,0.688,0.843,0.874,1.06c1.17,1.614,2.256,3.291,3.298,4.988
									c1.388,2.276,2.629,4.622,3.805,7.007c0.187,0.379,0.373,0.745,0.553,1.137v0.007c0.096,0.18,0.187,0.36,0.263,0.546
									c0.271,0.566,0.528,1.137,0.785,1.709c0.122,0.263,0.231,0.527,0.347,0.79v0.006c0.077,0.205,0.675,1.627,0.765,1.851
									c0.437,1.08,0.855,2.16,1.26,3.239c0.192,0.521,0.385,1.041,0.572,1.556c0.039,0.11,0.084,0.218,0.116,0.328
									c0.193,0.521,0.373,1.035,0.553,1.549c0.932,2.641,1.787,5.284,2.572,7.938c0.135,0.437,0.27,0.881,0.392,1.324
									c0.006,0.013,0.006,0.025,0.013,0.038c0.134,0.451,0.256,0.9,0.391,1.35c0.058,0.192,0.11,0.392,0.161,0.585
									c0.012,0.065,0.032,0.123,0.051,0.187c0.643,2.314,1.228,4.628,1.768,6.949c0.084,0.354,0.16,0.707,0.244,1.06
									c0.193,0.836,0.38,1.672,0.559,2.514c0.155,0.752,0.315,1.503,0.464,2.262c0.121,0.585,0.237,1.176,0.346,1.775
									c0.052,0.243,0.097,0.494,0.142,0.746c0,0.012,0.007,0.018,0.012,0.025c0.225,1.209,0.438,2.423,0.643,3.638
									c0.109,0.624,0.212,1.247,0.309,1.864c0.083,0.52,0.16,1.041,0.238,1.561c0.09,0.586,0.18,1.177,0.27,1.768
									c0.019,0.142,0.038,0.283,0.057,0.424c0.006,0.026,0.006,0.058,0.006,0.09c0.071,0.496,0.142,0.99,0.212,1.485
									c0.007,0.045,0.013,0.096,0.019,0.141c0.116,0.836,0.225,1.678,0.322,2.513c0.057,0.457,0.109,0.913,0.16,1.369
									c0.058,0.508,0.122,1.016,0.174,1.53c0.129,1.125,0.243,2.249,0.353,3.381c0.065,0.682,0.129,1.37,0.187,2.051
									c0.032,0.315,0.058,0.637,0.084,0.952c0.025,0.276,0.045,0.552,0.063,0.829c0.026,0.276,0.046,0.553,0.072,0.836
									c0.025,0.314,0.05,0.629,0.07,0.951c0.02,0.283,0.039,0.572,0.058,0.861c0.065,0.823,0.122,1.652,0.174,2.475
									c0.006,0.103,0.012,0.213,0.02,0.316c0.07,1.163,0.141,2.32,0.193,3.483c0.032,0.61,0.064,1.221,0.09,1.839
									c0.07,1.569,0.135,3.137,0.18,4.711c0,0.09,0.006,0.187,0.006,0.276c0,0.07,0,0.142,0.006,0.212
									c0,0.148,0.006,0.303,0.006,0.45c0.007,0.142,0.007,0.277,0.013,0.418c0.02,0.598,0.038,1.195,0.046,1.794v0.064
									c0.018,0.752,0.038,1.51,0.044,2.263c0.019,1.041,0.033,2.082,0.039,3.123c0.012,0.887,0.019,1.781,0.019,2.662
									c0,0.822-0.013,1.638-0.019,2.449c-0.006,0.398-0.006,0.797-0.013,1.195c-0.006,0.862-0.019,1.723-0.038,2.578
									c-0.013,0.655-0.026,1.305-0.045,1.948c0,0.224-0.006,0.45-0.012,0.675c-0.013,0.655-0.033,1.298-0.059,1.947
									c-0.012,0.508-0.032,1.016-0.05,1.523c-0.02,0.668-0.045,1.337-0.078,2.006c-0.122,2.802-0.276,5.58-0.481,8.329
									c-0.052,0.739-0.11,1.472-0.167,2.205c-0.033,0.437-0.072,0.868-0.11,1.298c-0.051,0.591-0.103,1.189-0.154,1.781
									c0,0.057-0.007,0.116-0.013,0.167c-0.167,1.729-0.347,3.445-0.546,5.161c-0.019,0.178-0.043,0.357-0.064,0.535
									c-0.123,1.044-0.248,2.089-0.384,3.13c-0.016,0.126-0.03,0.253-0.048,0.378v0.006c-0.028,0.219-0.062,0.437-0.091,0.656
									c-0.108,0.809-0.22,1.613-0.34,2.416c0,0.026-0.006,0.045-0.006,0.071c-0.007,0.045-0.012,0.09-0.019,0.141
									c-0.007,0.025-0.012,0.05-0.019,0.084c-0.071,0.475-0.142,0.964-0.212,1.446l-0.232,1.446c0,0.019-0.006,0.039-0.006,0.057
									c-0.006,0.02-0.006,0.045-0.013,0.065c-0.167,1.035-0.333,2.057-0.514,3.085c-0.007,0.065-0.026,0.123-0.032,0.18
									c-0.035,0.191-0.07,0.385-0.104,0.577c-0.059,0.333-0.122,0.667-0.183,1.001c-0.051,0.278-0.101,0.556-0.156,0.833
									c-0.026,0.161-0.058,0.321-0.084,0.475C487.888,544.801,487.856,544.955,487.831,545.109z M454.863,605.284
									c-0.476-0.038-1.113-0.142-1.209-0.173C453.706,605.111,454.04,605.15,454.863,605.284z"/>
								<path style="fill:#98C6EA;" d="M492.211,494.804c-0.055,22.372-1.9,41.869-7.197,63.111
									c-1.079,4.327-2.334,8.6-3.722,12.834c-0.652,1.986-1.357,3.955-2.094,5.917c-0.349,0.945-0.729,1.877-1.102,2.816
									c-0.077,0.194-0.141,0.341-0.195,0.473c-0.178,0.418-0.363,0.829-0.549,1.248c-1.475,3.311-3.141,6.539-4.963,9.672
									c-0.84,1.434-1.746,2.83-2.668,4.203c-0.435,0.634-0.884,1.256-1.336,1.876c-0.131,0.147-0.318,0.364-0.582,0.682
									c-0.914,1.094-1.9,2.125-2.915,3.134c-0.186,0.185-0.596,0.543-1.025,0.914c-1.031-0.931-1.985-1.93-2.915-2.955
									c-0.495-0.534-0.969-1.101-1.442-1.667c-0.069-0.084-0.123-0.156-0.178-0.217c-0.116-0.154-0.225-0.31-0.34-0.465
									c-1.978-2.707-3.692-5.607-5.297-8.546c-0.868-1.613-1.675-3.257-2.459-4.908c-0.411-0.861-0.798-1.731-1.186-2.599
									c-0.047-0.123-0.093-0.217-0.131-0.31c-0.202-0.489-0.397-0.978-0.59-1.467c-7.221-18.083-10.827-38.039-12.493-55.931
									c-2.047-21.891-1.567-46.886,1.264-66.926c1.404-9.958,3.443-19.83,6.158-29.516c1.163-4.141,2.505-8.236,3.978-12.276
									c0.357-0.954,0.721-1.909,1.094-2.854c0.07-0.179,0.441-1.071,0.636-1.558c0.782-1.792,1.612-3.568,2.49-5.313
									c1.535-3.104,3.271-6.096,5.172-8.981c0.318-0.481,1.729-2.364,2.087-2.877c0.861-1.032,1.76-2.032,2.699-3.002
									c0.48-0.488,0.983-0.962,1.496-1.411c0.505,0.459,0.992,0.932,1.48,1.411c0.675,0.674,1.311,1.382,1.939,2.094
									c0.256,0.289,1.032,1.249,1.326,1.596c1.172,1.615,2.257,3.291,3.296,4.988c1.389,2.273,2.63,4.622,3.81,7.004
									c0.557,1.116,1.084,2.256,1.597,3.404c0.123,0.264,0.232,0.527,0.349,0.791v0.008c0.077,0.202,0.674,1.621,0.768,1.846
									C489.356,438.337,492.141,465.915,492.211,494.804z"/>
							</g>
							<path style="fill:#FFFFFF;" d="M507.914,487.554c0,25.056-6.771,45.366-15.122,45.366c-8.351,0-15.122-20.31-15.122-45.366
								c0-25.053,6.771-45.364,15.122-45.364C501.143,442.19,507.914,462.501,507.914,487.554z"/>
						</g>
						<path style="fill:#796C86;" d="M215.978,287.815h-53.898v6.981h53.898c1.931,0,3.49-1.56,3.49-3.491
							C219.468,289.374,217.909,287.815,215.978,287.815z"/>
						<rect x="248.938" y="682.533" style="fill:#796C86;" width="4.654" height="53.527"/>
					</g>
				</g>
			</g>
		</g>
	</g>
	<g>
		<path style="opacity:0.8;fill:#1F8486;" d="M1307.857,800.561v12.187c-14.288,0.244-29.522,0.431-45.469,0.559
			c-1.234,0.013-2.474,0.019-3.715,0.033c-15.708,0.116-32.093,0.18-48.927,0.18c-22.882,0-44.929-0.116-65.594-0.328
			c-1.272-0.012-2.532-0.025-3.792-0.045c-38.412-0.423-71.861-1.188-96.812-2.191c-7.951-0.314-15.041-0.656-21.147-1.015
			c-1.396-0.084-2.739-0.168-4.024-0.251c-11.55-0.752-18.93-1.581-21.185-2.462c-0.483-0.187-0.733-0.38-0.733-0.572
			c0-0.912,5.547-1.786,15.619-2.583c1.099-0.085,2.25-0.174,3.458-0.258c1.383-0.096,2.828-0.192,4.346-0.289
			c11.955-0.752,28.069-1.42,47.365-1.974c13.646-0.397,28.879-0.738,45.359-1.009c1.999-0.032,4.017-0.064,6.048-0.096
			c2.411-0.039,4.846-0.071,7.308-0.103c1.222-0.019,2.455-0.039,3.69-0.052c13.099-0.173,26.841-0.302,41.086-0.385
			c3.863-0.026,7.771-0.045,11.703-0.059c8.941-0.038,18.055-0.057,27.305-0.057c11.479,0,22.748,0.032,33.732,0.084
			c1.259,0.006,2.519,0.012,3.773,0.025c2.127,0.007,4.243,0.019,6.344,0.039C1272.755,800.066,1290.965,800.272,1307.857,800.561z"
			/>
		<g>
			<g>
				<g>
					<g>
						<path style="fill:#2C2E35;" d="M1045.413,691.432l-12.898,57.571h211.391l12.151-57.571c6.101-28.907,8.682-52.34,5.775-52.34
							h-199.411C1059.507,639.092,1051.89,662.526,1045.413,691.432z"/>
					</g>
					<g>
						<path style="fill:#383B44;" d="M1048.84,691.432l-16.074,56.449h178.535l15.763-57.571
							c6.896-25.19,10.378-46.226,8.707-51.218h-165.315C1066.752,639.092,1057.072,662.526,1048.84,691.432z"/>
					</g>
					<g>
						<path style="fill:#383B44;" d="M1094.853,654.177l3.24-14.629c0.754-3.402-1.393-6.161-4.795-6.161h-19.556
							c-3.403,0-6.777,2.759-7.538,6.161l-3.268,14.629H1094.853z"/>
					</g>
					<g>
						<path style="fill:#383B44;" d="M1187.831,654.177l3.156-14.629c0.735-3.402-1.429-6.161-4.831-6.161h-19.557
							c-3.402,0-6.761,2.759-7.501,6.161l-3.185,14.629H1187.831z"/>
					</g>
					<path style="fill:#C5C8C9;" d="M1054.015,643.214c-0.627,2.8,1.101,5.07,3.858,5.07h203.653c2.758,0,5.474-2.269,6.064-5.07
						l0,0c0.59-2.797-1.167-5.068-3.922-5.068h-203.526C1057.386,638.146,1054.643,640.416,1054.015,643.214L1054.015,643.214z"/>
					<g>
						<g>
							<path style="fill:#B3A1A1;" d="M1097.02,638.146c-4.056,2.632-7.107,11.947-9.765,14.84h-15.549
								c-0.974-4.98-0.23-10.203,1.522-14.84H1097.02z"/>
						</g>
						<g>
							<path style="fill:#FFFFFF;" d="M1092.705,638.146c-4.056,2.632-7.109,11.947-9.766,14.84h-15.549
								c-0.973-4.98-0.229-10.203,1.525-14.84H1092.705z"/>
						</g>
						<path style="fill:#C5C8C9;" d="M1076.613,638.146l-0.707,3.159c-0.151,0.682-1.516,1.236-3.047,1.236
							c-0.765,0-1.432-0.139-1.879-0.364c-0.453-0.222-0.696-0.531-0.621-0.872l0.707-3.159H1076.613z"/>
						<path style="fill:#C5C8C9;" d="M1087.085,638.146l-0.701,3.159c-0.151,0.682-1.518,1.236-3.048,1.236
							c-0.766,0-1.431-0.139-1.879-0.364c-0.453-0.222-0.694-0.531-0.62-0.872l0.703-3.159H1087.085z"/>
					</g>
					<g>
						<g>
							<path style="fill:#B3A1A1;" d="M1190.062,638.146c-4.038,2.632-7.037,11.947-9.677,14.84h-15.549
								c-1.003-4.98-0.289-10.203,1.436-14.84H1190.062z"/>
						</g>
						<g>
							<path style="fill:#FFFFFF;" d="M1185.749,638.146c-4.041,2.632-7.039,11.947-9.682,14.84h-15.547
								c-1.003-4.98-0.287-10.203,1.439-14.84H1185.749z"/>
						</g>
						<path style="fill:#C5C8C9;" d="M1169.656,638.146l-0.687,3.159c-0.147,0.682-1.509,1.236-3.041,1.236
							c-0.765,0-1.431-0.139-1.881-0.364c-0.455-0.222-0.699-0.531-0.624-0.872l0.687-3.159H1169.656z"/>
						<path style="fill:#C5C8C9;" d="M1180.13,638.146l-0.683,3.159c-0.148,0.682-1.508,1.236-3.041,1.236
							c-0.764,0-1.432-0.139-1.882-0.364c-0.454-0.222-0.698-0.531-0.624-0.872l0.685-3.159H1180.13z"/>
					</g>
				</g>
				<path style="fill:#FFAE0B;" d="M1018.875,700.059v100.847c0,3.397,4.739,6.159,10.585,6.159h142.395
					c0.979,0,1.925-0.076,2.811-0.22h0.026c4.469-0.735,7.747-3.117,7.747-5.939V700.059H1018.875z"/>
				<path style="fill:#B3670D;" d="M1170.739,700.059v100.847c0,2.83,1.663,5.221,3.935,5.931c0.011,0,0.011,0,0.018,0.008
					c0.438,0.144,0.921,0.22,1.402,0.22h72.143c2.956,0,5.355-2.762,5.355-6.159V700.059H1170.739z"/>
				<path style="fill:#B3B7B8;" d="M1061.757,741.643c0,3.401-2.758,6.16-6.159,6.16h-22.177c-3.402,0-6.16-2.759-6.16-6.16v-31.417
					c0-3.402,2.758-6.16,6.16-6.16h22.177c3.401,0,6.159,2.757,6.159,6.16V741.643z"/>
				<path style="fill:#B3B7B8;" d="M1154.615,741.643c0,3.401-2.759,6.16-6.159,6.16h-22.178c-3.401,0-6.16-2.759-6.16-6.16v-31.417
					c0-3.402,2.759-6.16,6.16-6.16h22.178c3.4,0,6.159,2.757,6.159,6.16V741.643z"/>
				<path style="fill:#B3B7B8;" d="M1253.598,704.372v20.945h-234.652c-0.025,0-0.045,0-0.071-0.003v-20.938
					c0.026-0.004,0.046-0.004,0.071-0.004H1253.598z"/>
				<path style="fill:#C5C8C9;" d="M1007.243,704.678c0,2.552,2.068,4.622,4.621,4.622h248.252c2.382,0,4.351-1.816,4.587-4.147
					c0.018-0.153,0.025-0.312,0.025-0.475c0-0.159-0.008-0.32-0.025-0.471c-0.236-2.331-2.205-4.148-4.587-4.148h-248.252
					c-1.276,0-2.434,0.523-3.27,1.36C1007.757,702.248,1007.243,703.405,1007.243,704.678z"/>
				<path style="opacity:0.4;fill:#B3B7B8;" d="M1163.094,702.526v4.926c0,0.65,0.085,1.267,0.254,1.849h97.215
					c2.163,0,3.929-1.816,4.14-4.147c0.018-0.153,0.025-0.312,0.025-0.475c0-0.159-0.008-0.32-0.025-0.471
					c-0.211-2.331-1.977-4.148-4.14-4.148h-97.013C1163.253,700.819,1163.094,701.647,1163.094,702.526z"/>
			</g>
			<g>
				<rect x="1067.244" y="780.452" style="fill:#B3B7B8;" width="51.412" height="26.614"/>
				<rect x="1112.608" y="780.452" style="fill:#B3670D;" width="6.048" height="26.614"/>
			</g>
		</g>
	</g>
</g>
</svg>
