<svg xmlns="http://www.w3.org/2000/svg" width="36" height="36" viewBox="0 0 36 36">
    <g fill="none" fill-rule="evenodd">
        <g>
            <g>
                <g>
                    <g>
                        <g>
                            <path fill="#214EB2" d="M18 36C8.06 36 0 27.941 0 18S8.06 0 18 0s18 8.059 18 18-8.06 18-18 18z" transform="translate(-151 -4810) translate(0 4499) translate(151 100) translate(0 5) translate(0 206)"/>
                            <g fill="#FFF" fill-rule="nonzero">
                                <path d="M8.506.003L6.389 0C4.011 0 2.474 1.577 2.474 4.017V5.87H.346c-.184 0-.333.15-.333.333v2.684c0 .184.15.333.333.333h2.128v6.77c0 .185.15.334.333.334h2.777c.184 0 .333-.15.333-.333V9.219h2.488c.184 0 .333-.15.333-.333V6.202c0-.088-.034-.173-.097-.235-.062-.063-.147-.098-.235-.098h-2.49V4.3c0-.755.18-1.138 1.163-1.138h1.426c.184 0 .333-.15.333-.333V.336c0-.183-.149-.332-.332-.333z" transform="translate(-151 -4810) translate(0 4499) translate(151 100) translate(0 5) translate(0 206) translate(14 10)"/>
                            </g>
                        </g>
                    </g>
                </g>
            </g>
        </g>
    </g>
</svg>
