<svg width="25" height="25" viewBox="0 0 25 25" fill="none" xmlns="http://www.w3.org/2000/svg">
<path d="M23.0405 4.57713C23.0311 4.56775 21.1311 6.44588 17.3498 10.2209L14.6967 7.56775L20.3498 1.91463C17.3748 0.124001 13.553 0.583376 11.0748 3.0615C10.1276 4.00824 9.44587 5.18741 9.09812 6.48075C8.75038 7.77408 8.74881 9.13612 9.09358 10.4303L9.14983 10.6396L0.290454 19.4959C0.0967041 19.6896 0.0967041 20.0084 0.290454 20.2021L4.7092 24.6209C4.90295 24.8146 5.2217 24.8146 5.41545 24.6209L14.2686 15.7678L14.478 15.824C17.0936 16.5209 19.903 15.7959 21.853 13.8459C24.3342 11.3678 24.7936 7.54588 23.0405 4.57713Z" fill="#1EAEB6"/>
</svg>
