<svg width="32" height="33" viewBox="0 0 32 33" fill="none" xmlns="http://www.w3.org/2000/svg">
<path d="M6.03183 3.13002C2.91538 4.55181 0.272868 5.82998 0.172338 5.95924C0.0430845 6.14594 0 8.54431 0 16.8022C0 27.2143 0 27.401 0.28723 27.6882C0.445206 27.8462 0.689352 27.9754 0.832967 27.9754C0.96222 27.9754 3.76271 28.3201 7.03713 28.7509C10.3116 29.1818 13.0115 29.5121 13.0402 29.4834C13.069 29.469 12.9684 29.1961 12.8248 28.8945C12.6956 28.5786 12.5663 28.3201 12.5663 28.3057C12.5519 28.277 1.59413 26.8265 1.39306 26.8265C1.33562 26.8265 1.29253 22.3601 1.29253 16.9171C1.29253 7.38103 1.3069 7.00763 1.55104 7.00763C1.88136 7.00763 6.118 7.55336 6.57756 7.66825C6.90788 7.74006 6.90788 7.74006 6.82171 9.49216C6.66373 12.4075 6.4914 16.9889 6.53448 17.032C6.5632 17.0607 7.26692 16.6873 8.11424 16.2133C8.94721 15.7251 9.67965 15.3373 9.70837 15.3373C9.75145 15.3373 10.4552 15.7825 11.2738 16.3426C12.0924 16.8883 12.8105 17.3479 12.8535 17.3479C12.8966 17.3479 12.9253 15.3804 12.9253 12.9676C12.9253 8.70228 12.9397 8.58739 13.2126 8.58739C13.6003 8.58739 21.8582 9.72195 22.088 9.80812C22.2316 9.86556 22.2603 10.2964 22.2316 11.6751L22.1885 13.4703H22.8061H23.4092V11.5602V9.6645L27.0427 7.32358L30.6618 4.99702L30.7336 10.8565L30.8054 16.716L31.3511 17.4628C31.6527 17.8649 31.94 18.2096 31.9687 18.2096C32.0836 18.2096 31.8538 3.50342 31.7389 3.37417C31.6815 3.30236 11.9918 0.516232 11.7333 0.544954C11.719 0.544954 9.14827 1.70823 6.03183 3.13002ZM13.6147 2.00983C14.261 2.09599 14.7923 2.21089 14.7923 2.25397C14.778 2.29706 13.2269 3.30236 11.3169 4.48L7.84138 6.6055L5.35684 6.27519C3.9925 6.10285 2.90102 5.93052 2.92974 5.88743C3.15953 5.67201 11.7764 1.85185 12.0637 1.85185C12.2647 1.83749 12.9541 1.9093 13.6147 2.00983ZM25.5635 3.63268C27.5741 3.90554 29.3262 4.14969 29.4411 4.17841C29.6134 4.20713 23.2369 8.30016 22.6481 8.52995C22.4614 8.60175 15.3812 7.7257 14.3759 7.49592C14.0886 7.43847 14.6774 7.03635 17.6072 5.26989C19.704 4.02044 21.3268 3.13002 21.5422 3.13002C21.7433 3.13002 23.5529 3.35981 25.5635 3.63268Z" fill="#1EAEB6"/>
<path d="M21.9019 16.1555C19.762 16.4427 17.6796 17.6491 16.3296 19.3724C13.7877 22.6612 14.0605 27.4723 16.9472 30.4021C18.6418 32.1254 20.5519 32.9153 22.979 32.9297C24.8891 32.9297 26.1816 32.5419 27.7183 31.4935C29.5709 30.2441 30.7773 28.4202 31.2225 26.2229C31.5097 24.8585 31.5097 24.1692 31.2369 22.8766C30.3321 18.5826 26.1816 15.581 21.9019 16.1555ZM22.2322 20.0474L22.2753 20.6506H23.496C24.1997 20.6506 24.9034 20.7368 25.1763 20.8517C25.8226 21.1102 26.3827 21.8139 26.6412 22.6899C27.0577 24.1117 26.8423 24.4708 26.0667 23.6665C25.5354 23.1208 24.5157 22.8048 23.2519 22.8048H22.2753L22.2322 23.408C22.2035 23.7671 22.1173 24.0256 22.0168 24.0256C21.7583 24.0256 19.1014 21.9288 19.1014 21.7134C19.1014 21.4979 21.8301 19.3294 22.0312 19.4012C22.1173 19.4299 22.2035 19.7171 22.2322 20.0474ZM19.8913 25.3899C20.437 25.95 21.3705 26.2516 22.6487 26.2516H23.6971V25.7777C23.6971 25.0883 23.8838 24.8729 24.2285 25.117C25.5066 26.0362 26.8566 27.1851 26.8566 27.3431C26.8566 27.6303 24.1567 29.7414 23.8981 29.6409C23.7689 29.5978 23.6971 29.3537 23.6971 28.9803V28.4058H22.3758C20.8391 28.4058 20.3509 28.1904 19.762 27.3C19.3886 26.7112 19.0152 25.3468 19.1732 25.1027C19.3168 24.8729 19.4461 24.9303 19.8913 25.3899Z" fill="#1EAEB6"/>
</svg>
