<svg width="24" height="27" viewBox="0 0 24 27" fill="none" xmlns="http://www.w3.org/2000/svg">
<path opacity="0.5" d="M12.202 26.3466C18.4056 26.3466 23.4346 25.0992 23.4346 23.5605C23.4346 22.0218 18.4056 20.7745 12.202 20.7745C5.99847 20.7745 0.969482 22.0218 0.969482 23.5605C0.969482 25.0992 5.99847 26.3466 12.202 26.3466Z" fill="#B8CBCD"/>
<path d="M22.8392 14.4193C21.7141 20.0444 18.0033 22.1295 12.0425 22.1295C6.08165 22.1295 2.21181 20.0679 1.24582 14.4193C0.268056 8.62335 3.80216 1.36078 12.0484 1.36078C20.2946 1.36078 24.0643 8.30528 22.8392 14.4193Z" fill="#F6E89A"/>
<path d="M12.0489 22.8358C8.76218 22.8358 6.25886 22.2291 4.38579 20.9804C2.3419 19.6198 1.05196 17.4522 0.557183 14.5366C0.268565 12.8402 0.345137 11.0378 0.78101 9.32377C1.23455 7.53316 2.07096 5.87802 3.20187 4.54095C4.69797 2.76801 7.44868 0.653442 12.043 0.653442C13.9985 0.653442 15.8009 1.02452 17.3913 1.76079C18.8756 2.44405 20.1479 3.4336 21.1787 4.68821C23.3521 7.34467 24.2298 11.0319 23.5288 14.5542C22.9398 17.5052 21.6675 19.6021 19.6472 20.9686C17.7918 22.2232 15.3062 22.8358 12.0489 22.8358ZM12.0489 2.06708C8.83876 2.06708 6.15284 3.23923 4.28566 5.44804C2.31245 7.78054 1.41715 11.1733 1.95315 14.2951C2.78956 19.2192 5.90545 21.4163 12.0489 21.4163C18.0451 21.4163 21.161 19.2134 22.1505 14.2715C22.7749 11.1556 22.0033 7.90424 20.0949 5.57762C18.7755 3.98139 16.3134 2.06708 12.0489 2.06708Z" fill="#8D4520"/>
<path d="M12.0486 24.7796C18.0115 24.7796 22.8453 20.1304 22.8453 14.3952C22.8453 8.6601 18.0115 4.01086 12.0486 4.01086C6.08579 4.01086 1.25195 8.6601 1.25195 14.3952C1.25195 20.1304 6.08579 24.7796 12.0486 24.7796Z" fill="#F6E89A"/>
<path d="M12.0492 4.44011C11.7724 4.44011 11.5486 4.21628 11.5486 3.93944V1.35955C11.5486 1.08271 11.7724 0.858887 12.0492 0.858887C12.3261 0.858887 12.5499 1.08271 12.5499 1.35955V3.93944C12.5499 4.21628 12.3261 4.44011 12.0492 4.44011Z" fill="#8D4520"/>
<path d="M9.10394 5.09422C8.8271 5.09422 8.60327 4.87039 8.60327 4.59355V2.14324C8.60327 1.8664 8.8271 1.64258 9.10394 1.64258C9.38077 1.64258 9.6046 1.8664 9.6046 2.14324V4.58766C9.6046 4.87039 9.38077 5.09422 9.10394 5.09422Z" fill="#8D4520"/>
<path d="M6.15838 6.23729C5.88154 6.23729 5.65771 6.01346 5.65771 5.73663V3.08605C5.65771 2.80921 5.88154 2.58539 6.15838 2.58539C6.43522 2.58539 6.65904 2.80921 6.65904 3.08605V5.73663C6.65904 6.01346 6.43522 6.23729 6.15838 6.23729Z" fill="#8D4520"/>
<path d="M15.1059 5.15901C14.8291 5.15901 14.6052 4.93518 14.6052 4.65834V2.14324C14.6052 1.8664 14.8291 1.64258 15.1059 1.64258C15.3827 1.64258 15.6066 1.8664 15.6066 2.14324V4.65834C15.6066 4.93518 15.3827 5.15901 15.1059 5.15901Z" fill="#8D4520"/>
<path d="M18.0502 6.23729C17.7734 6.23729 17.5496 6.01346 17.5496 5.73663V3.08605C17.5496 2.80921 17.7734 2.58539 18.0502 2.58539C18.3271 2.58539 18.5509 2.80921 18.5509 3.08605V5.73663C18.5509 6.01346 18.3271 6.23729 18.0502 6.23729Z" fill="#8D4520"/>
<path d="M12.0478 20.3272C7.9541 20.3272 4.57903 17.3526 4.13138 13.5299C4.09604 13.8126 4.07837 14.1013 4.07837 14.3958C4.07837 18.6308 7.64781 22.0589 12.0478 22.0589C16.4477 22.0589 20.0172 18.6249 20.0172 14.3958C20.0172 14.1013 19.9995 13.8126 19.9641 13.5299C19.5106 17.3526 16.1414 20.3272 12.0478 20.3272Z" fill="#E8C980"/>
<path d="M12.0487 22.3351C7.50734 22.3351 3.81421 18.7715 3.81421 14.3952C3.81421 12.2217 4.70951 10.1955 6.32931 8.68169C6.52958 8.49321 6.84764 8.50499 7.03613 8.70525C7.22461 8.90552 7.21283 9.22359 7.01257 9.41207C5.59893 10.7315 4.81554 12.4985 4.81554 14.3893C4.81554 18.2179 8.06102 21.3279 12.0487 21.3279C16.0363 21.3279 19.2818 18.2179 19.2818 14.3893C19.2818 12.4219 18.4041 10.5371 16.8786 9.22359C16.6665 9.04099 16.643 8.72881 16.8256 8.51677C17.0082 8.30472 17.3204 8.28116 17.5324 8.46376C19.2818 9.97164 20.2831 12.1274 20.2831 14.3893C20.2772 18.7715 16.5841 22.3351 12.0487 22.3351Z" fill="#8D4520"/>
<path d="M12.3431 18.6476C11.9544 18.6476 11.6363 18.3296 11.6363 17.9408V11.4263L10.2816 12.3923C9.96348 12.622 9.52172 12.5454 9.29789 12.2274C9.06818 11.9093 9.14475 11.4675 9.46282 11.2437L11.9367 9.47666C12.1546 9.32352 12.4374 9.29995 12.673 9.42365C12.9086 9.54734 13.0558 9.78884 13.0558 10.0539V17.9467C13.0499 18.3296 12.7319 18.6476 12.3431 18.6476Z" fill="#8D4520"/>
<path d="M13.993 18.7305H10.3824C9.99361 18.7305 9.67554 18.4124 9.67554 18.0237C9.67554 17.6349 9.99361 17.3168 10.3824 17.3168H13.993C14.3818 17.3168 14.6998 17.6349 14.6998 18.0237C14.6998 18.4124 14.3877 18.7305 13.993 18.7305Z" fill="#8D4520"/>
<path d="M12.0486 6.03116C17.6561 6.03116 22.2622 10.1425 22.7923 15.4024C22.8276 15.0667 22.8453 14.7309 22.8453 14.3893C22.8453 8.65228 18.0095 4.00494 12.0486 4.00494C6.08778 4.00494 1.25195 8.65228 1.25195 14.3893C1.25195 14.7309 1.26962 15.0667 1.30496 15.4024C1.83508 10.1484 6.44119 6.03116 12.0486 6.03116Z" fill="white"/>
<path d="M12.0484 25.4868C5.70471 25.4868 0.544922 20.5096 0.544922 14.3957C0.544922 8.28166 5.70471 3.29858 12.0484 3.29858C18.3921 3.29858 23.5519 8.27577 23.5519 14.3898C23.5519 20.5038 18.3862 25.4868 12.0484 25.4868ZM12.0484 4.71222C6.4881 4.71222 1.95856 9.05328 1.95856 14.3898C1.95856 19.7263 6.48221 24.0673 12.0484 24.0673C17.6087 24.0673 22.1383 19.7263 22.1383 14.3898C22.1383 9.05328 17.6087 4.71222 12.0484 4.71222Z" fill="#8D4520"/>
</svg>
